<?xml version="1.0" standalone="no"?>
<!DOCTYPE svg PUBLIC "-//W3C//DTD SVG 20010904//EN"
 "http://www.w3.org/TR/2001/REC-SVG-20010904/DTD/svg10.dtd">
<svg version="1.0" xmlns="http://www.w3.org/2000/svg"
 width="503.000000pt" height="503.000000pt" viewBox="0 0 503.000000 503.000000"
 preserveAspectRatio="xMidYMid meet">
<metadata>
Created by potrace 1.14, written by Peter Selinger 2001-2017
</metadata>
<g transform="translate(0.000000,503.000000) scale(0.100000,-0.100000)"
fill="#000000" stroke="none">
<path d="M80 3676 l0 -1286 315 0 315 0 0 544 0 544 263 4 c233 4 270 7 335
27 389 116 619 414 599 776 -7 120 -26 196 -72 290 -77 158 -207 268 -390 329
-142 49 -148 49 -772 53 l-593 4 0 -1285z m430 -1 l0 -1095 -120 0 -120 0 0
1095 0 1095 120 0 120 0 0 -1095z m690 550 l0 -545 -245 0 -245 0 0 545 0 545
245 0 245 0 0 -545z m296 450 c85 -50 151 -149 180 -272 22 -95 15 -305 -14
-385 -37 -102 -122 -201 -220 -256 l-42 -23 0 490 0 491 28 -11 c15 -6 45 -21
68 -34z"/>
<path d="M2175 3739 c-492 -76 -829 -384 -955 -873 -43 -167 -53 -278 -47
-503 5 -223 20 -321 73 -493 127 -406 391 -652 799 -741 189 -42 570 -36 853
13 l122 21 0 110 0 110 -27 -7 c-275 -59 -403 -76 -592 -76 -194 0 -337 24
-478 81 l-53 21 0 1015 0 1014 66 30 c155 70 356 101 571 87 133 -8 236 -29
376 -75 59 -20 110 -34 112 -31 14 14 92 194 87 200 -15 14 -207 69 -294 84
-109 19 -520 28 -613 13z m-507 -1761 l-3 -432 -53 66 c-99 125 -165 277 -209
479 -26 121 -26 526 0 649 42 197 120 372 216 481 l46 53 3 -432 c1 -238 1
-626 0 -864z"/>
<path d="M3130 1356 l0 -1286 315 0 315 0 0 544 0 544 263 4 c233 4 270 7 335
27 389 116 619 414 599 776 -7 120 -26 196 -72 290 -77 158 -207 268 -390 329
-142 49 -148 49 -772 53 l-593 4 0 -1285z m430 -1 l0 -1095 -120 0 -120 0 0
1095 0 1095 120 0 120 0 0 -1095z m690 550 l0 -545 -245 0 -245 0 0 545 0 545
245 0 245 0 0 -545z m296 450 c85 -50 151 -149 180 -272 22 -95 15 -305 -14
-385 -37 -102 -122 -201 -220 -256 l-42 -23 0 490 0 491 28 -11 c15 -6 45 -21
68 -34z"/>
</g>
</svg>
