<?xml version="1.0" standalone="no"?>
<!DOCTYPE svg PUBLIC "-//W3C//DTD SVG 20010904//EN"
 "http://www.w3.org/TR/2001/REC-SVG-20010904/DTD/svg10.dtd">
<svg version="1.0" xmlns="http://www.w3.org/2000/svg"
 width="558.000000pt" height="558.000000pt" viewBox="0 0 558.000000 558.000000"
 preserveAspectRatio="xMidYMid meet">
<metadata>
Created by potrace 1.14, written by Peter Selinger 2001-2017
</metadata>
<g transform="translate(0.000000,558.000000) scale(0.100000,-0.100000)"
fill="#000000" stroke="none">
<path d="M1220 2820 l0 -2570 620 0 620 0 0 1090 0 1090 405 0 c416 0 527 7
699 41 562 113 1055 517 1225 1002 122 350 101 788 -55 1126 -80 174 -240 365
-401 480 -159 114 -374 203 -598 250 -271 55 -245 54 -1422 58 l-1093 4 0
-2571z m860 0 l0 -2190 -240 0 -240 0 0 2190 0 2190 240 0 240 0 0 -2190z
m1380 1090 l0 -1100 -500 0 -500 0 0 1100 0 1100 500 0 500 0 0 -1100z m462
985 c98 -40 198 -108 274 -187 117 -122 183 -253 225 -448 31 -142 34 -475 6
-615 -51 -253 -182 -453 -397 -604 -67 -47 -160 -101 -175 -101 -3 0 -5 445
-5 990 0 545 2 990 5 990 3 0 33 -11 67 -25z"/>
</g>
</svg>
