<svg version="1" xmlns="http://www.w3.org/2000/svg" width="480" height="480" viewBox="0 0 360.000000 360.000000"><path d="M8 94.7c0 53 .5 100 1 106.6 2.5 30 11.5 56.5 27.3 80.5 8.3 12.6 11 15.8 22 27 25.4 25.8 58.4 42.9 94.2 48.8 15.8 2.6 41.9 2.4 57.9-.5 75.5-13.5 132.7-75.5 140.5-152 .7-6.5 1.1-46.5 1.1-107.7V0H8v94.7zm327.7 16c-.5 100.2-.4 98.4-5.6 117.9-15.9 59.1-65.5 103.4-126.6 113.1-14.9 2.3-43.3 1.4-57.5-2-30.2-7.2-53.6-20.2-75.6-42.2-21.8-21.8-35.2-46.2-42.6-77.7-2.2-9.2-2.2-10.9-2.5-106.1L24.9 17h311.2l-.4 93.7z"/><path d="M40.2 118.2c.3 78.1.5 87.1 2.1 94.8 5.1 24.1 12.8 41.5 26.9 60.1 5.2 6.9 6.3 7.9 6.9 6.3 1.8-4.4 34.9-167.6 34.3-168.7-.4-.6-2.7-3.8-5.1-6.9-2.5-3.3-4.3-6.7-4.3-8.2V93h158v2.7c0 1.8-1.8 5.1-5.1 9.3-3.4 4.4-4.8 7.1-4.5 8.5.3 1.1 8.2 39.1 17.6 84.4 9.4 45.4 17.2 82.6 17.4 82.8.5.6 9.8-11.3 13.8-17.7 5.7-9 10.7-19.5 14.3-30.3 7.2-21.8 6.8-15.8 7.2-113l.4-87.7H39.9l.3 86.2zm237.5-46.7c.7 3.3 1.2 6.8 1.3 7.7 0 1.7-5.4 1.8-99 1.8-78.5 0-99-.3-99-1.3 0-1.1.8-5.1 2.5-12.5L84 65l96.2.2 96.2.3 1.3 6z"/><path d="M137 117.3c0 .2 1.7 2.7 3.9 5.5l3.8 5.2-7.7 37.7-7.7 37.8-8.1.3-8.1.3-1 5c-.6 2.7-1.1 5.2-1.1 5.4 0 .3 31.1.5 69 .5 77.3 0 70.2.8 67.9-7.3l-1-3.7H239c-7.4 0-8-.1-8.5-2.3-1.8-8-14.5-71.5-14.5-72.8 0-.9 1.6-3.7 3.5-6.2s3.5-4.8 3.5-5.1c0-.3-19.3-.6-43-.6-23.6 0-43 .1-43 .3zm26.5 34.8c0 6.9.1 7.1 3.7 10.4 2.3 2.2 5.8 4 9.5 5 3.2.9 7.2 2.2 8.8 3 2.8 1.3 2.3 1.4-7 1.5-10.3 0-22.7 2.1-25.1 4.1-.9.7-1.4 3.2-1.4 6.5 0 4.7.3 5.6 2.6 7.1 8.8 5.7 42 5.7 50.8 0 2.2-1.5 2.6-2.5 2.6-6.8 0-4.2-.6-5.9-4-10.7-4-5.8-5.2-9.5-6.8-21l-.8-6.3 5.5.3 5.5.3 5.7 28c3.2 15.4 5.8 28.6 5.9 29.2 0 1-8.4 1.3-39 1.3-21.4 0-39-.2-39-.4 0-.5 10.7-52.9 11.5-56.4.5-1.9 1.2-2.2 5.8-2.2h5.2v7.1zm12.2 31.9c3.2 2.5 5.4 2.5 8.4.1 2.1-1.6 3.2-1.7 7.8-1 3 .4 5.9 1.3 6.4 1.8 1.7 1.7-4.3 2.6-18.3 2.6-14.1 0-20.1-.8-18.3-2.6.6-.6 3.2-1.4 5.9-1.8 2.7-.5 5.1-.9 5.2-1 .2 0 1.5.8 2.9 1.9zM112 239.6c0 .3 1.6 2.6 3.5 5.1 1.9 2.5 3.5 5.4 3.5 6.4s-2.5 13.9-5.5 28.7c-3 14.9-5.5 27.3-5.5 27.6 0 .6 10.1 6.6 11.2 6.6.3 0 4.2-10.6 8.5-23.5l7.8-23.5h89l7.9 23.3c4.4 12.7 8 23.3 8.2 23.5.4.6 10.2-4.7 10.9-5.9.4-.6-1.9-13.8-5-29.4l-5.8-28.4 4.2-5.5 4.2-5.6h-68.6c-37.7 0-68.5.3-68.5.6z"/></svg>