<svg xmlns="http://www.w3.org/2000/svg" xmlns:xlink="http://www.w3.org/1999/xlink" width="575.548" height="437.615" viewBox="0 0 431.661 328.211"><defs><symbol overflow="visible" id="a"><path d="M1.39-6.922c-.359 0-.484.11-.484.484v5.954c0 .359.11.484.485.484h2.625c2.437 0 3.28-1.453 3.28-3.406 0-.797-.124-1.75-.687-2.469-.75-.922-1.937-1.047-2.593-1.047zm.954 6.063v-5.204h1.281c2.14 0 2.234 1.532 2.234 2.657S5.75-.86 3.625-.86zm0 0"/></symbol><symbol overflow="visible" id="b"><path d="M4.297-2.14c.234 0 .484 0 .484-.454 0-1.281-.61-2.14-2.093-2.14-1.594 0-2.376.89-2.376 2.406 0 1.64.938 2.437 2.516 2.437.375 0 .938-.046 1.594-.375.219-.109.297-.14.297-.265 0-.063-.032-.36-.047-.438-.031-.312-.047-.312-.14-.312-.032 0-.063 0-.173.093a2.197 2.197 0 0 1-1.5.579c-1.125 0-1.25-.891-1.28-1.532zm-2.703-.516c.031-.61.234-1.36 1.093-1.36.797 0 .954.579.985 1.36zm0 0"/></symbol><symbol overflow="visible" id="c"><path d="M2.172-3.844h.89c.126 0 .47 0 .47-.36 0-.359-.345-.359-.47-.359h-.89v-.828c0-.328-.063-.484-.485-.484h-.296c-.36 0-.485.11-.485.484v.829H.672c-.11 0-.469 0-.469.359 0 .36.36.36.469.36h.203v2.515c0 1.016.36 1.437 1.047 1.437.094 0 .531 0 1.047-.156.172-.047.75-.234.75-.422 0-.031-.016-.094-.078-.312-.047-.203-.079-.25-.157-.25-.062 0-.062 0-.125.062-.109.078-.375.297-.796.297-.235 0-.391-.172-.391-.828zm0 0"/></symbol><symbol overflow="visible" id="d"><path d="M1.938-2.297c0-.937.78-1.328 1.406-1.375.187 0 .203 0 .203-.265v-.47c0-.202 0-.265-.172-.265-.281 0-1.016.094-1.484 1.172v-.64c0-.329-.079-.485-.485-.485h-.312c-.36 0-.485.11-.485.484v3.657c0 .359.11.484.485.484h.36c.374 0 .484-.125.484-.484zm0 0"/></symbol><symbol overflow="visible" id="e"><path d="M8.031-3.234c0-1.032-.437-1.438-1.453-1.438-.703 0-1.25.328-1.61.984-.155-.953-1.015-.984-1.437-.984-.187 0-.594 0-1.047.328a2.002 2.002 0 0 0-.578.688h-.015v-.485c0-.328-.063-.484-.47-.484h-.343c-.36 0-.484.11-.484.484v3.657c0 .359.11.484.484.484h.39c.391 0 .485-.125.485-.484v-2.204c0-.89.61-1.265 1.094-1.265.484 0 .594.203.594.734v2.735c0 .359.109.484.468.484h.407C4.89 0 5-.125 5-.484v-2.204c0-.89.61-1.265 1.094-1.265.468 0 .578.203.578.734v2.735c0 .359.11.484.484.484h.407c.375 0 .468-.125.468-.484zm0 0"/></symbol><symbol overflow="visible" id="f"><path d="M1.016-6.922c-.313 0-.485.047-.485.453v.453c0 .329.11.454.469.454h.531C2-5.563 2-5.766 2-6.234c0-.485 0-.688-.469-.688zm.921 2.828c0-.312-.078-.468-.484-.468h-.36c-.359 0-.484.109-.484.468v3.61c0 .359.11.484.485.484h.36c.374 0 .484-.125.484-.484zm0 0"/></symbol><symbol overflow="visible" id="g"><path d="M4.984-3.234c0-1.032-.437-1.438-1.453-1.438-1.047 0-1.5.75-1.625 1.016h-.015v-.485c0-.328-.063-.484-.47-.484h-.343c-.36 0-.484.11-.484.484v3.657c0 .359.11.484.484.484h.39c.391 0 .485-.125.485-.484v-2.204c0-.859.578-1.265 1.094-1.265.484 0 .578.219.578.734v2.735c0 .328.078.484.484.484H4.5c.39 0 .484-.125.484-.484zm0 0"/></symbol><symbol overflow="visible" id="h"><path d="M2-.922c-.36 0-.5 0-.64-.11-.048-.046-.22-.187-.22-.452 0-.079.016-.094.032-.157.469.266 1.047.266 1.266.266.406 0 2 0 2-1.64 0-.579-.22-.938-.313-1.047.172 0 .516 0 .922.109.047.031.11.047.14.047.094 0 .141-.063.141-.125 0-.047-.047-.282-.078-.39-.031-.235-.031-.25-.219-.25-.312 0-.797.109-1.187.343-.469-.313-.985-.344-1.406-.344-.422 0-2.016 0-2.016 1.64 0 .407.11.891.5 1.235C.64-1.437.64-1.047.64-1c0 .188.062.516.28.797C.767-.156.25.03.25.672c0 .312.156.828.781 1.11.563.265 1.235.265 1.703.265.579 0 2.485 0 2.485-1.406 0-1.563-1.407-1.563-2.75-1.563zm.438-1.172c-.704 0-.735-.375-.735-.922 0-.546.031-.937.734-.937.688 0 .72.375.72.922s-.032.937-.72.937zm.53 2.266c.813 0 1.235.14 1.235.5 0 .656-1.14.656-1.469.656-.39 0-1.453 0-1.453-.687 0-.47.297-.47.532-.47zm0 0"/></symbol><symbol overflow="visible" id="i"><path d="M2.188-3.844h.468c.125 0 .485 0 .485-.36 0-.359-.36-.359-.485-.359h-.5v-1.093c0-.25 0-.657.64-.657.329 0 .517.094.72.282.078.078.109.093.156.093.125 0 .125-.093.125-.25v-.468c0-.235-.016-.235-.344-.313-.297-.062-.5-.062-.656-.062-.75 0-1.938.172-1.938 1.672v.796c-.218 0-.562 0-.562.36s.344.36.562.36v3.359c0 .359.11.484.47.484h.374c.375 0 .484-.125.484-.484zm0 0"/></symbol><symbol overflow="visible" id="j"><path d="M4.625-3.156c0-1.563-1.516-1.578-2.016-1.578-.468 0-.968.046-1.625.312-.218.094-.265.125-.265.234 0 .079.062.657.062.735.016.047.063.11.14.11.048 0 .079-.032.11-.063a2.002 2.002 0 0 1 1.547-.672c.531 0 .688.328.688.922v.344c-.344 0-2.954.015-2.954 1.484C.313-.625.875.109 1.75.109c.328 0 1.078-.093 1.547-.78v.187c0 .328.078.484.484.484h.36c.39 0 .484-.125.484-.484zm-1.36 1.625c0 .922-.937.922-.968.922-.422 0-.688-.36-.688-.735 0-.984 1.375-1.047 1.657-1.062zm0 0"/></symbol><symbol overflow="visible" id="k"><path d="M4.984-4.094c0-.312-.062-.468-.484-.468h-.39c-.376 0-.485.125-.485.468v2.375c0 .657-.344 1.219-1.047 1.219-.562 0-.625-.14-.625-.672v-2.922c0-.312-.062-.468-.484-.468h-.39c-.36 0-.485.109-.485.468v2.844c0 1.063.578 1.36 1.625 1.36.265 0 .969 0 1.437-.844v.25c0 .328.078.484.485.484H4.5c.39 0 .484-.125.484-.484zm0 0"/></symbol><symbol overflow="visible" id="l"><path d="M3.953-1.406c0-.563-.297-.907-.484-1.063-.39-.36-.75-.422-1.172-.5-.547-.11-.938-.187-.938-.562 0-.422.329-.5.72-.5.655 0 1.015.25 1.28.468.094.11.125.11.157.11.109 0 .125-.094.14-.14.016-.079.11-.641.11-.688 0-.157-.532-.297-.641-.328a3.484 3.484 0 0 0-.969-.125c-.453 0-1.781 0-1.781 1.421 0 .485.219.797.484 1.032.344.312.735.39 1.297.5.297.047.797.14.797.578 0 .469-.375.531-.765.531-.438 0-1-.125-1.47-.687-.046-.047-.077-.079-.14-.079-.094 0-.125.094-.125.157-.031.14-.14.703-.14.797 0 .187.734.421.75.421.546.172.953.172 1.125.172.5 0 1.765-.046 1.765-1.515zm0 0"/></symbol><symbol overflow="visible" id="m"><path d="M4.563-.5c0-.11-.047-.563-.063-.703 0-.016-.031-.125-.125-.125-.031 0-.063 0-.156.11-.172.14-.64.546-1.453.546-1.047 0-1.047-1-1.047-1.64 0-.813.062-1.641 1.078-1.641.64 0 .906.156 1.265.453.125.11.141.11.188.11.094 0 .11-.094.125-.126.016-.078.125-.64.125-.687 0-.094-.078-.14-.25-.219-.469-.219-.766-.312-1.469-.312-1.484 0-2.406.703-2.406 2.437C.375-.64 1.219.11 2.735.11c.265 0 .859-.015 1.53-.343.282-.157.298-.172.298-.266zm0 0"/></symbol><symbol overflow="visible" id="n"><path d="M4.672-4.094c.047-.14.047-.156.047-.187 0-.282-.25-.282-.407-.282H4.11c-.421 0-.53.141-.625.422L2.5-1.125l-.984-3.016c-.063-.203-.141-.421-.625-.421H.656c-.14 0-.39 0-.39.28 0 .032 0 .048.046.188L1.5-.422C1.64 0 1.938 0 2.125 0h.719c.187 0 .5 0 .64-.422zm0 0"/></symbol><symbol overflow="visible" id="o"><path d="M5.156-2.25c0-1.625-.797-2.484-2.422-2.484-1.656 0-2.421.89-2.421 2.484 0 1.625.859 2.36 2.421 2.36 1.563 0 2.422-.72 2.422-2.36zM2.734-.672c-1.062 0-1.062-.89-1.062-1.687 0-.766 0-1.657 1.062-1.657 1.079 0 1.079.875 1.079 1.657 0 .78 0 1.687-1.079 1.687zm0 0"/></symbol><symbol overflow="visible" id="p"><path d="M4.984-3.234c0-1.032-.437-1.438-1.453-1.438-1 0-1.453.688-1.594.969h-.015v-2.735c0-.328-.063-.484-.469-.484h-.375c-.36 0-.484.11-.484.484v5.954c0 .359.11.484.484.484h.39c.391 0 .485-.125.485-.484v-2.204c0-.859.578-1.265 1.094-1.265.484 0 .578.219.578.734v2.735c0 .328.078.484.484.484H4.5c.39 0 .484-.125.484-.484zm0 0"/></symbol><symbol overflow="visible" id="q"><path d="M6.703-6.438c0-.328-.078-.484-.484-.484h-.39c-.391 0-.485.14-.485.484v4.172c0 .985-.297 1.625-1.5 1.625-1.156 0-1.469-.578-1.469-1.609v-4.188c0-.328-.078-.484-.484-.484h-.5c-.36 0-.485.11-.485.484v4.141C.906-.187 2.562.22 3.828.22c1.14 0 2.875-.344 2.875-2.5zm0 0"/></symbol><symbol overflow="visible" id="r"><path d="M2.688-4.39c-.22-.063-.829-.282-.829-.86 0-.844.844-.86 1.188-.86.547 0 1.047.126 1.531.61.172.14.172.156.219.156.062 0 .11-.031.14-.172l.141-.875c.031-.078.031-.093.031-.125 0-.078-.015-.093-.265-.218-.703-.36-1.297-.407-1.797-.407-.89 0-2.438.22-2.438 2.079 0 .703.375 1.171.563 1.359.5.515.969.625 1.75.797.562.14.781.187 1 .39.094.094.312.297.312.688 0 .937-.859.953-1.187.953-.844 0-1.578-.328-2.063-.781-.125-.125-.14-.125-.187-.125-.063 0-.11.031-.14.187l-.141.86c-.032.093-.032.109-.032.14 0 .203 1.047.563 1.094.578A4.648 4.648 0 0 0 3.047.22C4.53.219 5.469-.453 5.469-2c0-1.11-.828-1.953-1.813-2.172zm0 0"/></symbol><symbol overflow="visible" id="s"><path d="M3.766-6.922h-.891L.281 0h.735l.765-2.031h2.907L5.438 0h.921zm.703 4.328H2l.64-1.797c.204-.593.516-1.437.594-1.812.032.14.094.39.329 1.047zm0 0"/></symbol><symbol overflow="visible" id="t"><path d="M3.422-4.281a3.19 3.19 0 0 0-1.438-.313c-.25 0-1.656 0-1.656 1.297 0 .5.297.813.547 1 .297.219.516.266 1.063.375.359.063.937.188.937.719 0 .687-.781.687-.938.687C1.141-.516.579-.89.407-1L.28-.328c.313.156.86.437 1.672.437.188 0 .734 0 1.156-.312.313-.25.485-.64.485-1.078 0-.547-.375-.875-.39-.907-.392-.359-.657-.421-1.157-.5C1.5-2.796 1.03-2.905 1.03-3.39 1.031-4 1.75-4 1.891-4c.312 0 .843.031 1.406.375zm0 0"/></symbol><symbol overflow="visible" id="u"><path d="M2.797-2.719l1.672-1.703h-.89L1.561-2.359v-4.563H.845V0h.687v-1.406l.797-.828L3.875 0h.813zm0 0"/></symbol><symbol overflow="visible" id="v"><path d="M1.75-3.844h1.094v-.578H1.719v-1.187c0-.735.672-.813.937-.813.188 0 .469.016.797.172v-.672a3.042 3.042 0 0 0-.797-.11C1.72-7.031 1-6.311 1-5.327v.906H.266v.578H1V0h.75zm0 0"/></symbol><symbol overflow="visible" id="w"><path d="M4.672-2.188c0-1.343-1-2.406-2.172-2.406C1.266-4.594.297-3.5.297-2.187.297-.875 1.313.108 2.484.108c1.188 0 2.188-1 2.188-2.296zM2.484-.53c-.687 0-1.406-.563-1.406-1.766s.75-1.687 1.406-1.687c.704 0 1.407.515 1.407 1.687 0 1.188-.672 1.766-1.407 1.766zm0 0"/></symbol><symbol overflow="visible" id="x"><path d="M1.563-2.14c0-.985.718-1.704 1.703-1.735v-.656c-.891 0-1.438.5-1.75.953v-.906H.812V0h.75zm0 0"/></symbol><symbol overflow="visible" id="y"><path d="M4.094-4.172c-.594-.328-.938-.422-1.547-.422C1.172-4.594.359-3.39.359-2.219.36-.984 1.266.11 2.516.11c.53 0 1.078-.14 1.625-.515l-.063-.656a2.517 2.517 0 0 1-1.562.53c-.829 0-1.375-.718-1.375-1.687 0-.781.359-1.734 1.421-1.734.516 0 .86.078 1.407.437zm0 0"/></symbol><symbol overflow="visible" id="z"><path d="M1.625-6.781h-.89v.89h.89zm-.063 2.36h-.75V0h.75zm0 0"/></symbol><symbol overflow="visible" id="A"><path d="M1.75-3.844h1.406v-.578H1.75v-1.266h-.688v1.266H.188v.578h.844v2.656c0 .594.14 1.297.828 1.297s1.204-.25 1.454-.375l-.157-.593a1.407 1.407 0 0 1-.906.328c-.36 0-.5-.297-.5-.828zm0 0"/></symbol><symbol overflow="visible" id="B"><path d="M3.984-4.031v-.39H.422v.577H2.937L.281-.406V0H4v-.625H2.547c-.125 0-.25.016-.36.016h-.859zm0 0"/></symbol><symbol overflow="visible" id="C"><path d="M4.125-2.188c0-.328-.016-1.078-.39-1.687a1.629 1.629 0 0 0-1.376-.719C1.25-4.594.344-3.53.344-2.25.344-.937 1.313.11 2.5.11c.625 0 1.203-.235 1.594-.516l-.063-.656A2.35 2.35 0 0 1 2.516-.5c-.797 0-1.438-.703-1.47-1.688zm-3.031-.546c.156-.75.687-1.25 1.265-1.25.516 0 1.063.328 1.204 1.25zm0 0"/></symbol><symbol overflow="visible" id="D"><path d="M4.344-2.969c0-.656-.157-1.562-1.375-1.562-.89 0-1.39.672-1.438.75v-.703H.813V0h.765v-2.438c0-.656.25-1.484 1.016-1.484.953 0 .969.703.969 1.016V0h.78zm0 0"/></symbol><symbol overflow="visible" id="E"><path d="M4.344-2.969c0-.656-.157-1.562-1.375-1.562-.61 0-1.094.297-1.406.718v-3.109h-.75V0h.765v-2.438c0-.656.25-1.484 1.016-1.484.953 0 .969.703.969 1.016V0h.78zm0 0"/></symbol><symbol overflow="visible" id="F"><path d="M1.594-.453c.312.281.75.562 1.343.562.97 0 1.844-.984 1.844-2.328 0-1.203-.625-2.312-1.578-2.312-.594 0-1.172.203-1.64.593v-.484h-.75v6.36h.78zm0-2.86c.234-.359.625-.578 1.062-.578.75 0 1.344.75 1.344 1.672C4-1.203 3.297-.5 2.547-.5c-.39 0-.656-.203-.86-.469-.093-.14-.093-.172-.093-.344zm0 0"/></symbol><symbol overflow="visible" id="G"><path d="M3.984-2.875c0-1.016-.734-1.719-1.656-1.719-.64 0-1.094.157-1.562.422l.062.656A2.543 2.543 0 0 1 2.328-4c.469 0 .875.39.875 1.125v.438C1.703-2.422.438-2 .438-1.125c0 .422.265 1.234 1.14 1.234.14 0 1.078-.015 1.656-.468V0h.75zm-.78 1.563c0 .187 0 .437-.345.625-.28.171-.671.187-.78.187-.47 0-.923-.234-.923-.64 0-.704 1.61-.766 2.047-.798zm0 0"/></symbol><symbol overflow="visible" id="H"><path d="M4.328-6.922h-.75v2.938a2.289 2.289 0 0 0-1.453-.547C1.141-4.531.359-3.5.359-2.22.36-.906 1.125.11 2.08.11c.327 0 .905-.093 1.468-.625V0h.781zM3.547-1.39c0 .141-.016.329-.328.61a1.09 1.09 0 0 1-.735.281c-.625 0-1.343-.469-1.343-1.703 0-1.313.859-1.719 1.437-1.719.453 0 .75.219.969.547zm0 0"/></symbol><symbol overflow="visible" id="I"><path d="M3.516-3.89c.218 0 .484-.047.734-.047.172 0 .563.03.578.03l-.11-.624c-.687 0-1.265.187-1.562.312a1.542 1.542 0 0 0-.953-.312c-.86 0-1.578.718-1.578 1.625 0 .36.125.719.328.984-.297.406-.297.797-.297.844 0 .266.094.547.266.766C.406-.017.282.453.282.702c0 .75.984 1.344 2.202 1.344 1.22 0 2.204-.578 2.204-1.344 0-1.39-1.657-1.39-2.047-1.39h-.875c-.125 0-.579 0-.579-.532 0-.11.032-.265.11-.36.203.157.531.298.906.298.89 0 1.594-.75 1.594-1.625 0-.485-.219-.86-.328-1zM2.203-1.86c-.375 0-.89-.218-.89-1.046 0-.828.515-1.063.89-1.063.422 0 .89.281.89 1.063 0 .765-.468 1.047-.89 1.047zM2.656.032C2.875.031 4 .031 4 .72c0 .437-.688.765-1.5.765-.813 0-1.516-.312-1.516-.78 0-.032 0-.673.766-.673zm0 0"/></symbol><symbol overflow="visible" id="J"><path d="M5.797-1.14c-.578.39-.922.609-1.906.609-1.438 0-2.329-1.5-2.329-2.938 0-1.36.813-2.922 2.344-2.922.703 0 1.156.172 1.703.516l.141-.813c-.422-.203-1.188-.343-1.828-.343C2.078-7.031.656-5.47.656-3.375.656-1.797 1.844.109 3.922.109c.906 0 1.297-.156 1.937-.562zm0 0"/></symbol><symbol overflow="visible" id="K"><path d="M2.547-2.281c0-.688.328-1.422 1.015-2 .204-.172.579-.485.579-1.203 0-.672-.407-1.547-1.907-1.547-.609 0-1.14.172-1.671.531l.218.625a2.18 2.18 0 0 1 1.453-.547c.47 0 1.125.078 1.125.922 0 .453-.218.64-.343.766-1.141.968-1.141 2.234-1.141 2.671v.313h.672zM1.797 0h.828v-.828h-.828zm0 0"/></symbol><symbol overflow="visible" id="L"><path d="M4.64-6.64a3.374 3.374 0 0 0-1.827-.5c-1.391 0-2.25.984-2.25 1.968 0 .422.14.844.53 1.266.423.453.86.562 1.454.703.844.219.937.25 1.219.484.203.172.421.5.421.938 0 .656-.546 1.312-1.453 1.312a3.301 3.301 0 0 1-2.14-.812L.438-.47C1.313.078 2.109.22 2.733.22c1.329 0 2.235-1 2.235-2.11a2.04 2.04 0 0 0-.516-1.359c-.469-.5-.797-.594-1.719-.813C2.156-4.202 2-4.25 1.688-4.5c-.063-.063-.344-.36-.344-.797 0-.578.547-1.187 1.453-1.187.844 0 1.312.328 1.687.64zm0 0"/></symbol><symbol overflow="visible" id="M"><path d="M4.453-4.422h-.75C2.406-1.25 2.375-.797 2.375-.562h-.016c-.062-.672-.859-2.532-.89-2.625L.922-4.423H.14L2.078 0c-.125.313-.328.813-.36.89-.265.579-.437.579-.577.579-.157 0-.47-.032-.766-.157l.047.657c.219.047.5.078.719.078.359 0 .718-.125 1.125-1.14zm0 0"/></symbol><symbol overflow="visible" id="N"><path d="M1.797-.016v-.812H.969V0h.25l-.25 1.25h.406zm0 0"/></symbol><symbol overflow="visible" id="O"><path d="M1.563-6.922h-.75V0h.75zm0 0"/></symbol><symbol overflow="visible" id="P"><path d="M4.453-4.422h-.75l-.797 2.063C2.703-1.797 2.391-1 2.312-.531h-.015c-.047-.36-.313-1.047-.406-1.313L.92-4.422h-.78L1.859 0h.875zm0 0"/></symbol><symbol overflow="visible" id="Q"><path d="M6.61-6.922h-.876l-1.546 2.25c-.047.078-.094.156-.172.266l-.61.953c-.187-.313-.187-.328-.36-.578l-1.968-2.89H.031l2.86 4.155V0h.859v-2.766zm0 0"/></symbol><symbol overflow="visible" id="R"><path d="M4.344-4.422h-.782v2.89C3.563-.781 3-.436 2.36-.436c-.703 0-.78-.266-.78-.688v-3.297H.812v3.328C.813-.375 1.03.11 1.859.11c.532 0 1.235-.156 1.735-.593V0h.75zm0 0"/></symbol><symbol overflow="visible" id="S"><path d="M2-6.922h-.828l.078 4.75v.422h.672v-.422zM2-.828h-.828V0H2zm0 0"/></symbol><symbol overflow="visible" id="T"><path d="M3.844-6.219h.875c.125 0 .25.016.36.016h1.343v-.656H.359v.656h1.329c.125 0 .25-.016.359-.016h.906V0h.89zm0 0"/></symbol><symbol overflow="visible" id="U"><path d="M7.11-2.969c0-.672-.157-1.562-1.376-1.562-.593 0-1.109.281-1.484.812-.25-.75-.953-.812-1.266-.812-.718 0-1.187.406-1.453.765v-.718H.813V0h.765v-2.438c0-.687.281-1.484 1.016-1.484.922 0 .969.64.969 1.016V0h.78v-2.438c0-.687.266-1.484 1.016-1.484.922 0 .97.64.97 1.016V0h.78zm0 0"/></symbol><symbol overflow="visible" id="V"><path d="M1.797-.828H.969V0h.828zm0 0"/></symbol><symbol overflow="visible" id="W"><path d="M2.656 2.5v-.61h-.922v-8.765h.922v-.61h-1.64V2.5zm0 0"/></symbol><symbol overflow="visible" id="X"><path d="M5.906-6.922h-.765v4.61C5.14-1 4.297-.345 3.453-.345c-.812 0-1.625-.625-1.625-1.969v-4.609h-.89v4.594A2.53 2.53 0 0 0 3.453.219c1.328 0 2.453-1.094 2.453-2.547zm0 0"/></symbol><symbol overflow="visible" id="Y"><path d="M1.86-7.484H.218v.609h.922v8.766H.219V2.5h1.64zm0 0"/></symbol><symbol overflow="visible" id="Z"><path d="M2.188-6.922H.952V0h.781v-6.203h.016c.188.406.61 1.25.656 1.36L4.86 0h1.235v-6.922h-.782v6.219h-.015c-.188-.406-.61-1.266-.656-1.375zm0 0"/></symbol><symbol overflow="visible" id="aa"><path d="M2.75-1.922V-2.5H.11v.578zm0 0"/></symbol><symbol overflow="visible" id="ab"><path d="M5.281-3.531c-.343.906-.812 2.14-.922 2.61h-.015c-.047-.22-.172-.579-.313-1L2.47-6.048l-.344-.875H1V0h.781v-6.188c.063.329.469 1.407.719 2.094L3.984-.219h.72L6.03-3.688c.313-.812.407-1.062.485-1.265.093-.297.359-1.016.406-1.234h.016V0h.78v-6.922h-1.14zm0 0"/></symbol><symbol overflow="visible" id="ac"><path d="M1.828-6.781H.953v.89h.875zM-.609 1.703a2.45 2.45 0 0 0 1.203.344c.625 0 1.234-.516 1.234-1.453v-5.016h-.734V.672c0 .64-.5.734-.782.734-.296 0-.546-.11-.765-.312zm0 0"/></symbol></defs><path d="M20.121 42.781v261.324a3.984 3.984 0 0 0 3.984 3.985h383.22c2.198 0 3.984-1.781 3.984-3.985V42.781c0-2.199-1.786-3.984-3.985-3.984H24.105a3.986 3.986 0 0 0-3.984 3.984zm0 0" fill="none" stroke-width=".399" stroke="#000" stroke-miterlimit="10"/><use xlink:href="#a" x="221.44" y="35.617"/><use xlink:href="#b" x="229.355" y="35.617"/><use xlink:href="#c" x="234.447" y="35.617"/><use xlink:href="#b" x="238.474" y="35.617"/><use xlink:href="#d" x="243.566" y="35.617"/><use xlink:href="#e" x="247.274" y="35.617"/><use xlink:href="#f" x="255.909" y="35.617"/><use xlink:href="#g" x="258.455" y="35.617"/><use xlink:href="#f" x="264.045" y="35.617"/><use xlink:href="#g" x="266.591" y="35.617"/><use xlink:href="#h" x="272.182" y="35.617"/><use xlink:href="#f" x="281.317" y="35.617"/><use xlink:href="#i" x="283.864" y="35.617"/><use xlink:href="#j" x="290.858" y="35.617"/><use xlink:href="#k" x="299.745" y="35.617"/><use xlink:href="#l" x="305.335" y="35.617"/><use xlink:href="#b" x="309.536" y="35.617"/><use xlink:href="#d" x="314.628" y="35.617"/><use xlink:href="#m" x="321.993" y="35.617"/><use xlink:href="#j" x="326.863" y="35.617"/><use xlink:href="#g" x="332.094" y="35.617"/><use xlink:href="#n" x="341.33" y="35.617"/><use xlink:href="#o" x="346.311" y="35.617"/><use xlink:href="#c" x="351.791" y="35.617"/><use xlink:href="#b" x="355.818" y="35.617"/><use xlink:href="#f" x="364.566" y="35.617"/><use xlink:href="#g" x="367.112" y="35.617"/><use xlink:href="#c" x="376.358" y="35.617"/><use xlink:href="#p" x="380.385" y="35.617"/><use xlink:href="#b" x="385.975" y="35.617"/><use xlink:href="#q" x="394.714" y="35.617"/><use xlink:href="#r" x="402.324" y="35.617"/><path d="M217.578 24.621a4.698 4.698 0 1 0-9.396.005 4.698 4.698 0 0 0 9.396-.005zm0 0"/><path d="M268.332 59.395H157.43a3.987 3.987 0 0 0-3.989 3.984v7.527c0 2.2 1.786 3.985 3.989 3.985h110.902c2.2 0 3.984-1.786 3.984-3.985V63.38c0-2.2-1.785-3.984-3.984-3.984zm0 0" fill="none" stroke-width=".399" stroke="#000" stroke-miterlimit="10"/><use xlink:href="#s" x="156.764" y="69.632"/><use xlink:href="#t" x="163.406" y="69.632"/><use xlink:href="#u" x="167.225" y="69.632"/><use xlink:href="#v" x="175.413" y="69.632"/><use xlink:href="#w" x="178.458" y="69.632"/><use xlink:href="#x" x="183.17" y="69.632"/><use xlink:href="#y" x="189.892" y="69.632"/><use xlink:href="#z" x="194.319" y="69.632"/><use xlink:href="#A" x="196.699" y="69.632"/><use xlink:href="#z" x="200.297" y="69.632"/><use xlink:href="#B" x="202.677" y="69.632"/><use xlink:href="#C" x="207.007" y="69.632"/><use xlink:href="#D" x="211.435" y="69.632"/><use xlink:href="#t" x="216.582" y="69.632"/><use xlink:href="#E" x="220.401" y="69.632"/><use xlink:href="#z" x="225.549" y="69.632"/><use xlink:href="#F" x="227.929" y="69.632"/><use xlink:href="#G" x="236.394" y="69.632"/><use xlink:href="#D" x="241.182" y="69.632"/><use xlink:href="#H" x="246.33" y="69.632"/><use xlink:href="#G" x="254.795" y="69.632"/><use xlink:href="#I" x="259.583" y="69.632"/><use xlink:href="#C" x="264.564" y="69.632"/><path d="M239.566 121.898L212.88 95.215l-26.684 26.683 26.684 26.688zm0 0" fill="none" stroke-width=".399" stroke="#000" stroke-miterlimit="10"/><use xlink:href="#J" x="196.214" y="125.357"/><use xlink:href="#z" x="202.579" y="125.357"/><use xlink:href="#A" x="204.959" y="125.357"/><use xlink:href="#z" x="208.557" y="125.357"/><use xlink:href="#B" x="210.937" y="125.357"/><use xlink:href="#C" x="215.267" y="125.357"/><use xlink:href="#D" x="219.695" y="125.357"/><use xlink:href="#K" x="224.843" y="125.357"/><path d="M391.762 181.684H276.648a3.986 3.986 0 0 0-3.984 3.984v7.527a3.984 3.984 0 0 0 3.984 3.985h115.114c2.199 0 3.984-1.782 3.984-3.985v-7.527c0-2.2-1.785-3.984-3.984-3.984zm0 0" fill="none" stroke-width=".399" stroke="#000" stroke-miterlimit="10"/><use xlink:href="#L" x="275.984" y="191.921"/><use xlink:href="#w" x="281.519" y="191.921"/><use xlink:href="#x" x="286.222" y="191.921"/><use xlink:href="#x" x="289.626" y="191.921"/><use xlink:href="#M" x="293.03" y="191.921"/><use xlink:href="#N" x="296.797" y="191.921"/><use xlink:href="#w" x="302.882" y="191.921"/><use xlink:href="#D" x="307.863" y="191.921"/><use xlink:href="#O" x="313.011" y="191.921"/><use xlink:href="#M" x="315.391" y="191.921"/><use xlink:href="#y" x="323.302" y="191.921"/><use xlink:href="#z" x="327.74" y="191.921"/><use xlink:href="#A" x="330.12" y="191.921"/><use xlink:href="#z" x="333.717" y="191.921"/><use xlink:href="#B" x="336.097" y="191.921"/><use xlink:href="#C" x="340.428" y="191.921"/><use xlink:href="#D" x="344.855" y="191.921"/><use xlink:href="#t" x="350.003" y="191.921"/><g><use xlink:href="#y" x="357.139" y="191.921"/><use xlink:href="#G" x="361.567" y="191.921"/><use xlink:href="#D" x="366.355" y="191.921"/></g><g><use xlink:href="#P" x="374.82" y="191.921"/><use xlink:href="#w" x="379.414" y="191.921"/><use xlink:href="#A" x="384.395" y="191.921"/><use xlink:href="#C" x="387.993" y="191.921"/></g><path d="M153.246 174.555l-21.367-21.368-21.363 21.368 21.363 21.363zm0 0" fill="none" stroke-width=".399" stroke="#000" stroke-miterlimit="10"/><g><use xlink:href="#s" x="121.504" y="177.041"/><use xlink:href="#I" x="128.146" y="177.041"/><use xlink:href="#C" x="133.127" y="177.041"/><use xlink:href="#K" x="137.555" y="177.041"/></g><path d="M88.527 213.922H32.125a3.986 3.986 0 0 0-3.984 3.984v5.59a3.984 3.984 0 0 0 3.984 3.984h56.402c2.2 0 3.985-1.78 3.985-3.984v-5.59c0-2.199-1.785-3.984-3.985-3.984zm0 0" fill="none" stroke-width=".399" stroke="#000" stroke-miterlimit="10"/><g><use xlink:href="#Q" x="31.464" y="224.158"/></g><g><use xlink:href="#w" x="37.279" y="224.158"/><use xlink:href="#R" x="42.26" y="224.158"/></g><g><use xlink:href="#y" x="50.726" y="224.158"/><use xlink:href="#G" x="55.153" y="224.158"/><use xlink:href="#D" x="59.941" y="224.158"/></g><g><use xlink:href="#P" x="68.406" y="224.158"/><use xlink:href="#w" x="73" y="224.158"/><use xlink:href="#A" x="77.981" y="224.158"/><use xlink:href="#C" x="81.579" y="224.158"/><use xlink:href="#S" x="86.006" y="224.158"/></g><path d="M253.746 213.922h-78.512a3.986 3.986 0 0 0-3.984 3.984v7.528a3.984 3.984 0 0 0 3.984 3.984h78.512c2.2 0 3.984-1.781 3.984-3.984v-7.528c0-2.199-1.785-3.984-3.984-3.984zm0 0" fill="none" stroke-width=".399" stroke="#000" stroke-miterlimit="10"/><g><use xlink:href="#Q" x="174.571" y="224.158"/></g><g><use xlink:href="#w" x="180.386" y="224.158"/><use xlink:href="#R" x="185.367" y="224.158"/></g><g><use xlink:href="#G" x="193.833" y="224.158"/></g><g><use xlink:href="#x" x="198.342" y="224.158"/><use xlink:href="#C" x="201.746" y="224.158"/></g><g><use xlink:href="#A" x="209.491" y="224.158"/><use xlink:href="#w" x="213.088" y="224.158"/></g><g><use xlink:href="#w" x="218.349" y="224.158"/></g><g><use xlink:href="#M" x="226.657" y="224.158"/></g><g><use xlink:href="#w" x="230.972" y="224.158"/><use xlink:href="#R" x="235.954" y="224.158"/><use xlink:href="#D" x="241.101" y="224.158"/><use xlink:href="#I" x="246.249" y="224.158"/><use xlink:href="#S" x="251.23" y="224.158"/></g><path d="M277.379 286.512H151.602a3.987 3.987 0 0 0-3.989 3.984v7.527c0 2.2 1.785 3.985 3.989 3.985h125.777a3.984 3.984 0 0 0 3.984-3.985v-7.527c0-2.2-1.781-3.984-3.984-3.984zm0 0" fill="none" stroke-width=".399" stroke="#000" stroke-miterlimit="10"/><g><use xlink:href="#T" x="150.937" y="296.746"/><use xlink:href="#E" x="157.718" y="296.746"/><use xlink:href="#G" x="162.865" y="296.746"/><use xlink:href="#D" x="167.653" y="296.746"/><use xlink:href="#u" x="172.801" y="296.746"/><use xlink:href="#t" x="177.672" y="296.746"/></g><g><use xlink:href="#v" x="184.808" y="296.746"/><use xlink:href="#w" x="187.852" y="296.746"/></g><g><use xlink:href="#x" x="192.555" y="296.746"/></g><g><use xlink:href="#R" x="199.286" y="296.746"/><use xlink:href="#t" x="204.434" y="296.746"/><use xlink:href="#z" x="208.253" y="296.746"/><use xlink:href="#D" x="210.633" y="296.746"/><use xlink:href="#I" x="215.781" y="296.746"/></g><g><use xlink:href="#w" x="224.079" y="296.746"/><use xlink:href="#R" x="229.061" y="296.746"/><use xlink:href="#x" x="234.208" y="296.746"/></g><g><use xlink:href="#F" x="240.93" y="296.746"/></g><g><use xlink:href="#x" x="245.799" y="296.746"/><use xlink:href="#w" x="249.203" y="296.746"/><use xlink:href="#I" x="254.184" y="296.746"/><use xlink:href="#x" x="259.166" y="296.746"/><use xlink:href="#G" x="262.57" y="296.746"/><use xlink:href="#U" x="267.358" y="296.746"/><use xlink:href="#V" x="275.272" y="296.746"/></g><path d="M212.879 29.52v21.57" fill="none" stroke-width=".797" stroke="#000" stroke-miterlimit="10"/><path d="M212.879 57.55c.195-.792 1.297-4.28 2.496-6.46h-4.988c1.195 2.18 2.3 5.668 2.492 6.46zm0 0" stroke-width=".797" stroke="#000" stroke-miterlimit="10"/><path d="M212.879 75.09v11.734" fill="none" stroke-width=".797" stroke="#000" stroke-miterlimit="10"/><path d="M212.879 93.285c.195-.793 1.297-4.281 2.496-6.46h-4.988c1.195 2.179 2.3 5.667 2.492 6.46zm0 0" stroke-width=".797" stroke="#000" stroke-miterlimit="10"/><path d="M185.91 121.898H131.88v22.903" fill="none" stroke-width=".797" stroke="#000" stroke-miterlimit="10"/><path d="M131.879 151.262c.195-.793 1.297-4.282 2.496-6.461h-4.988c1.195 2.18 2.3 5.668 2.492 6.46zm0 0" stroke-width=".797" stroke="#000" stroke-miterlimit="10"/><g><use xlink:href="#W" x="132.111" y="115.688"/><use xlink:href="#X" x="134.989" y="115.688"/><use xlink:href="#L" x="141.838" y="115.688"/></g><g><use xlink:href="#y" x="150.691" y="115.688"/><use xlink:href="#z" x="155.119" y="115.688"/><use xlink:href="#A" x="157.499" y="115.688"/><use xlink:href="#z" x="161.096" y="115.688"/><use xlink:href="#B" x="163.476" y="115.688"/><use xlink:href="#C" x="167.807" y="115.688"/><use xlink:href="#D" x="172.234" y="115.688"/><use xlink:href="#Y" x="177.382" y="115.688"/></g><path d="M239.848 121.898h94.355v51.48" fill="none" stroke-width=".797" stroke="#000" stroke-miterlimit="10"/><path d="M334.203 179.844c.195-.797 1.297-4.285 2.496-6.465h-4.988c1.2 2.18 2.3 5.668 2.492 6.465zm0 0" stroke-width=".797" stroke="#000" stroke-miterlimit="10"/><g><use xlink:href="#W" x="238.952" y="115.688"/><use xlink:href="#Z" x="241.83" y="115.688"/><use xlink:href="#w" x="248.887" y="115.688"/><use xlink:href="#D" x="253.868" y="115.688"/><use xlink:href="#aa" x="259.016" y="115.688"/><use xlink:href="#X" x="262.336" y="115.688"/><use xlink:href="#L" x="269.186" y="115.688"/></g><g><use xlink:href="#y" x="278.038" y="115.688"/><use xlink:href="#z" x="282.466" y="115.688"/><use xlink:href="#A" x="284.846" y="115.688"/><use xlink:href="#z" x="288.443" y="115.688"/><use xlink:href="#B" x="290.823" y="115.688"/><use xlink:href="#C" x="295.154" y="115.688"/><use xlink:href="#D" x="299.581" y="115.688"/><use xlink:href="#Y" x="304.729" y="115.688"/></g><path d="M110.23 174.555H60.324v31.062" fill="none" stroke-width=".797" stroke="#000" stroke-miterlimit="10"/><path d="M60.324 212.078c.196-.793 1.297-4.281 2.496-6.46h-4.988c1.2 2.179 2.3 5.667 2.492 6.46zm0 0" stroke-width=".797" stroke="#000" stroke-miterlimit="10"/><g><use xlink:href="#W" x="60.175" y="168.341"/><use xlink:href="#ab" x="63.053" y="168.341"/><use xlink:href="#G" x="71.77" y="168.341"/><use xlink:href="#ac" x="76.558" y="168.341"/><use xlink:href="#w" x="79.216" y="168.341"/></g><g><use xlink:href="#x" x="83.918" y="168.341"/><use xlink:href="#Y" x="87.322" y="168.341"/></g><path d="M153.527 174.555h60.961v31.062" fill="none" stroke-width=".797" stroke="#000" stroke-miterlimit="10"/><path d="M214.488 212.078c.196-.793 1.297-4.281 2.496-6.46h-4.988c1.2 2.179 2.3 5.667 2.492 6.46zm0 0" stroke-width=".797" stroke="#000" stroke-miterlimit="10"/><g><use xlink:href="#W" x="153.97" y="168.341"/><use xlink:href="#Z" x="156.848" y="168.341"/><use xlink:href="#w" x="163.905" y="168.341"/><use xlink:href="#A" x="168.886" y="168.341"/></g><g><use xlink:href="#U" x="175.801" y="168.341"/><use xlink:href="#G" x="183.715" y="168.341"/><use xlink:href="#ac" x="188.503" y="168.341"/><use xlink:href="#w" x="191.16" y="168.341"/></g><g><use xlink:href="#x" x="195.873" y="168.341"/><use xlink:href="#Y" x="199.277" y="168.341"/></g><path d="M214.488 229.617v48.59" fill="none" stroke-width=".797" stroke="#000" stroke-miterlimit="10"/><path d="M214.488 284.668c.196-.793 1.297-4.281 2.496-6.461h-4.988c1.2 2.18 2.3 5.668 2.492 6.461zm0 0" stroke-width=".797" stroke="#000" stroke-miterlimit="10"/><path d="M60.324 227.68v21.37h154.164v29.157" fill="none" stroke-width=".797" stroke="#000" stroke-miterlimit="10"/><path d="M214.488 284.668c.196-.793 1.297-4.281 2.496-6.461h-4.988c1.2 2.18 2.3 5.668 2.492 6.461zm0 0" stroke-width=".797" stroke="#000" stroke-miterlimit="10"/><path d="M334.203 197.379v51.582H214.488v29.246" fill="none" stroke-width=".797" stroke="#000" stroke-miterlimit="10"/><path d="M214.488 284.668c.196-.793 1.297-4.281 2.496-6.461h-4.988c1.2 2.18 2.3 5.668 2.492 6.461zm0 0" stroke-width=".797" stroke="#000" stroke-miterlimit="10"/></svg>