<svg xmlns="http://www.w3.org/2000/svg" xmlns:xlink="http://www.w3.org/1999/xlink" width="469.413" height="343.125" viewBox="0 0 352.06 257.344"><defs><symbol overflow="visible" id="a"><path d="M2.922-5.86v5.376c0 .359.11.484.484.484h.5c.375 0 .485-.125.485-.484V-5.86c.437 0 1.546.03 1.984.03.281 0 .516 0 .516-.468v-.078c0-.328-.063-.484-.47-.484H.876c-.36 0-.469.109-.469.484v.078c0 .469.235.469.516.469zm0 0"/></symbol><symbol overflow="visible" id="b"><path d="M4.297-2.14c.234 0 .484 0 .484-.454 0-1.281-.61-2.14-2.093-2.14-1.594 0-2.376.89-2.376 2.406 0 1.64.938 2.437 2.516 2.437.375 0 .938-.046 1.594-.375.219-.109.297-.14.297-.265 0-.063-.032-.36-.047-.438-.031-.312-.047-.312-.14-.312-.032 0-.063 0-.173.093a2.197 2.197 0 0 1-1.5.579c-1.125 0-1.25-.891-1.28-1.532zm-2.703-.516c.031-.61.234-1.36 1.093-1.36.797 0 .954.579.985 1.36zm0 0"/></symbol><symbol overflow="visible" id="c"><path d="M4.625-3.156c0-1.563-1.516-1.578-2.016-1.578-.468 0-.968.046-1.625.312-.218.094-.265.125-.265.234 0 .079.062.657.062.735.016.047.063.11.14.11.048 0 .079-.032.11-.063a2.002 2.002 0 0 1 1.547-.672c.531 0 .688.328.688.922v.344c-.344 0-2.954.015-2.954 1.484C.313-.625.875.109 1.75.109c.328 0 1.078-.093 1.547-.78v.187c0 .328.078.484.484.484h.36c.39 0 .484-.125.484-.484zm-1.36 1.625c0 .922-.937.922-.968.922-.422 0-.688-.36-.688-.735 0-.984 1.375-1.047 1.657-1.062zm0 0"/></symbol><symbol overflow="visible" id="d"><path d="M4.563-.5c0-.11-.047-.563-.063-.703 0-.016-.031-.125-.125-.125-.031 0-.063 0-.156.11-.172.14-.64.546-1.453.546-1.047 0-1.047-1-1.047-1.64 0-.813.062-1.641 1.078-1.641.64 0 .906.156 1.265.453.125.11.141.11.188.11.094 0 .11-.094.125-.126.016-.078.125-.64.125-.687 0-.094-.078-.14-.25-.219-.469-.219-.766-.312-1.469-.312-1.484 0-2.406.703-2.406 2.437C.375-.64 1.219.11 2.735.11c.265 0 .859-.015 1.53-.343.282-.157.298-.172.298-.266zm0 0"/></symbol><symbol overflow="visible" id="e"><path d="M4.984-3.234c0-1.032-.437-1.438-1.453-1.438-1 0-1.453.688-1.594.969h-.015v-2.735c0-.328-.063-.484-.469-.484h-.375c-.36 0-.484.11-.484.484v5.954c0 .359.11.484.484.484h.39c.391 0 .485-.125.485-.484v-2.204c0-.859.578-1.265 1.094-1.265.484 0 .578.219.578.734v2.735c0 .328.078.484.484.484H4.5c.39 0 .484-.125.484-.484zm0 0"/></symbol><symbol overflow="visible" id="f"><path d="M1.016-6.922c-.313 0-.485.047-.485.453v.453c0 .329.11.454.469.454h.531C2-5.563 2-5.766 2-6.234c0-.485 0-.688-.469-.688zm.921 2.828c0-.312-.078-.468-.484-.468h-.36c-.359 0-.484.109-.484.468v3.61c0 .359.11.484.485.484h.36c.374 0 .484-.125.484-.484zm0 0"/></symbol><symbol overflow="visible" id="g"><path d="M4.984-3.234c0-1.032-.437-1.438-1.453-1.438-1.047 0-1.5.75-1.625 1.016h-.015v-.485c0-.328-.063-.484-.47-.484h-.343c-.36 0-.484.11-.484.484v3.657c0 .359.11.484.484.484h.39c.391 0 .485-.125.485-.484v-2.204c0-.859.578-1.265 1.094-1.265.484 0 .578.219.578.734v2.735c0 .328.078.484.484.484H4.5c.39 0 .484-.125.484-.484zm0 0"/></symbol><symbol overflow="visible" id="h"><path d="M2-.922c-.36 0-.5 0-.64-.11-.048-.046-.22-.187-.22-.452 0-.079.016-.094.032-.157.469.266 1.047.266 1.266.266.406 0 2 0 2-1.64 0-.579-.22-.938-.313-1.047.172 0 .516 0 .922.109.047.031.11.047.14.047.094 0 .141-.063.141-.125a2.82 2.82 0 0 0-.078-.39c-.031-.235-.031-.25-.219-.25-.312 0-.797.109-1.187.343-.469-.313-.985-.344-1.406-.344-.422 0-2.016 0-2.016 1.64 0 .407.11.891.5 1.235C.64-1.437.64-1.047.64-1c0 .188.062.516.28.797C.767-.156.25.03.25.672c0 .312.156.828.781 1.11.563.265 1.235.265 1.703.265.579 0 2.485 0 2.485-1.406 0-1.563-1.407-1.563-2.75-1.563zm.438-1.172c-.704 0-.735-.375-.735-.922 0-.546.031-.937.734-.937.688 0 .72.375.72.922s-.032.937-.72.937zm.53 2.266c.813 0 1.235.14 1.235.5 0 .656-1.14.656-1.469.656-.39 0-1.453 0-1.453-.687 0-.47.297-.47.532-.47zm0 0"/></symbol><symbol overflow="visible" id="i"><path d="M1.938-6.438c0-.328-.079-.484-.485-.484h-.36c-.359 0-.484.11-.484.484v5.954c0 .359.11.484.485.484h.36c.374 0 .484-.125.484-.484zm0 0"/></symbol><symbol overflow="visible" id="j"><path d="M3.953-1.406c0-.563-.297-.907-.484-1.063-.39-.36-.75-.422-1.172-.5-.547-.11-.938-.187-.938-.562 0-.422.329-.5.72-.5.655 0 1.015.25 1.28.468.094.11.125.11.157.11.109 0 .125-.094.14-.14.016-.079.11-.641.11-.688 0-.157-.532-.297-.641-.328a3.484 3.484 0 0 0-.969-.125c-.453 0-1.781 0-1.781 1.421 0 .485.219.797.484 1.032.344.312.735.39 1.297.5.297.047.797.14.797.578 0 .469-.375.531-.765.531-.438 0-1-.125-1.47-.687-.046-.047-.077-.079-.14-.079-.094 0-.125.094-.125.157-.031.14-.14.703-.14.797 0 .187.734.421.75.421a3.57 3.57 0 0 0 1.125.172c.5 0 1.765-.046 1.765-1.515zm0 0"/></symbol><symbol overflow="visible" id="k"><path d="M3.766-6.922h-.891L.281 0h.735l.765-2.031h2.907L5.438 0h.921zm.703 4.328H2l.64-1.797c.204-.593.516-1.437.594-1.812.032.14.094.39.329 1.047zm0 0"/></symbol><symbol overflow="visible" id="l"><path d="M3.422-4.281a3.19 3.19 0 0 0-1.438-.313c-.25 0-1.656 0-1.656 1.297 0 .5.297.813.547 1 .297.219.516.266 1.063.375.359.063.937.188.937.719 0 .687-.781.687-.938.687C1.141-.516.579-.89.407-1L.28-.328c.313.156.86.437 1.672.437.188 0 .734 0 1.156-.312.313-.25.485-.64.485-1.078 0-.547-.375-.875-.39-.907-.392-.359-.657-.421-1.157-.5C1.5-2.796 1.03-2.905 1.03-3.39 1.031-4 1.75-4 1.891-4c.312 0 .843.031 1.406.375zm0 0"/></symbol><symbol overflow="visible" id="m"><path d="M2.797-2.719l1.672-1.703h-.89L1.561-2.359v-4.563H.845V0h.687v-1.406l.797-.828L3.875 0h.813zm0 0"/></symbol><symbol overflow="visible" id="n"><path d="M1.75-3.844h1.094v-.578H1.719v-1.187c0-.735.672-.813.937-.813.188 0 .469.016.797.172v-.672a3.042 3.042 0 0 0-.797-.11C1.72-7.031 1-6.311 1-5.327v.906H.266v.578H1V0h.75zm0 0"/></symbol><symbol overflow="visible" id="o"><path d="M4.672-2.188c0-1.343-1-2.406-2.172-2.406C1.266-4.594.297-3.5.297-2.187.297-.875 1.313.108 2.484.108c1.188 0 2.188-1 2.188-2.296zM2.484-.53c-.687 0-1.406-.563-1.406-1.766s.75-1.687 1.406-1.687c.704 0 1.407.515 1.407 1.687 0 1.188-.672 1.766-1.407 1.766zm0 0"/></symbol><symbol overflow="visible" id="p"><path d="M1.563-2.14c0-.985.718-1.704 1.703-1.735v-.656c-.891 0-1.438.5-1.75.953v-.906H.812V0h.75zm0 0"/></symbol><symbol overflow="visible" id="q"><path d="M4.328-4.531h-.75v.672c-.094-.125-.594-.672-1.36-.672-1 0-1.859.984-1.859 2.328C.36-.938 1.094.109 2.047.109c.562 0 1.078-.234 1.5-.609v2.438h.781zm-.75 3.14c0 .172 0 .188-.094.329-.265.39-.64.562-.984.562-.766 0-1.36-.781-1.36-1.703 0-1.016.72-1.688 1.438-1.688.688 0 1 .704 1 1.094zm0 0"/></symbol><symbol overflow="visible" id="r"><path d="M4.344-4.422h-.782v2.89C3.563-.781 3-.436 2.36-.436c-.703 0-.78-.266-.78-.688v-3.297H.812v3.328C.813-.375 1.03.11 1.859.11c.532 0 1.235-.156 1.735-.593V0h.75zm0 0"/></symbol><symbol overflow="visible" id="s"><path d="M4.125-2.188c0-.328-.016-1.078-.39-1.687a1.629 1.629 0 0 0-1.376-.719C1.25-4.594.344-3.53.344-2.25.344-.937 1.313.11 2.5.11a2.81 2.81 0 0 0 1.594-.516l-.063-.656A2.35 2.35 0 0 1 2.516-.5c-.797 0-1.438-.703-1.47-1.688zm-3.031-.546c.156-.75.687-1.25 1.265-1.25.516 0 1.063.328 1.204 1.25zm0 0"/></symbol><symbol overflow="visible" id="t"><path d="M1.75-3.844h1.406v-.578H1.75v-1.266h-.688v1.266H.188v.578h.844v2.656c0 .594.14 1.297.828 1.297s1.204-.25 1.454-.375l-.157-.593a1.407 1.407 0 0 1-.906.328c-.36 0-.5-.297-.5-.828zm0 0"/></symbol><symbol overflow="visible" id="u"><path d="M1.625-6.781h-.89v.89h.89zm-.063 2.36h-.75V0h.75zm0 0"/></symbol><symbol overflow="visible" id="v"><path d="M4.344-2.969c0-.656-.157-1.562-1.375-1.562-.89 0-1.39.672-1.438.75v-.703H.813V0h.765v-2.438c0-.656.25-1.484 1.016-1.484.953 0 .969.703.969 1.016V0h.78zm0 0"/></symbol><symbol overflow="visible" id="w"><path d="M6.656-4.422h-.718l-.641 2.11c-.11.359-.406 1.343-.469 1.78-.047-.312-.297-1.202-.469-1.765l-.64-2.125h-.703l-.563 1.875c-.11.344-.453 1.485-.484 2h-.016c-.047-.484-.375-1.61-.531-2.156L.89-4.422H.14L1.5 0h.797c.047-.156.39-1.281.61-2.047.14-.469.421-1.453.452-1.828h.016c.016.281.188.969.313 1.406L4.421 0h.875zm0 0"/></symbol><symbol overflow="visible" id="x"><path d="M1.828-6.922h-.89V0h.89zm0 0"/></symbol><symbol overflow="visible" id="y"><path d="M4.328-6.922h-.75v2.938a2.289 2.289 0 0 0-1.453-.547C1.141-4.531.359-3.5.359-2.22.36-.906 1.125.11 2.08.11c.327 0 .905-.093 1.468-.625V0h.781zM3.547-1.39c0 .141-.016.329-.328.61a1.09 1.09 0 0 1-.735.281c-.625 0-1.343-.469-1.343-1.703 0-1.313.859-1.719 1.437-1.719.453 0 .75.219.969.547zm0 0"/></symbol><symbol overflow="visible" id="z"><path d="M4.094-4.172c-.594-.328-.938-.422-1.547-.422C1.172-4.594.359-3.39.359-2.219.36-.984 1.266.11 2.516.11c.53 0 1.078-.14 1.625-.515l-.063-.656a2.517 2.517 0 0 1-1.562.53c-.829 0-1.375-.718-1.375-1.687 0-.781.359-1.734 1.421-1.734.516 0 .86.078 1.407.437zm0 0"/></symbol><symbol overflow="visible" id="A"><path d="M1.563-6.922h-.75V0h.75zm0 0"/></symbol><symbol overflow="visible" id="B"><path d="M3.984-2.875c0-1.016-.734-1.719-1.656-1.719-.64 0-1.094.157-1.562.422l.062.656A2.543 2.543 0 0 1 2.328-4c.469 0 .875.39.875 1.125v.438C1.703-2.422.438-2 .438-1.125c0 .422.265 1.234 1.14 1.234.14 0 1.078-.015 1.656-.468V0h.75zm-.78 1.563c0 .187 0 .437-.345.625-.28.171-.671.187-.78.187-.47 0-.923-.234-.923-.64 0-.704 1.61-.766 2.047-.798zm0 0"/></symbol><symbol overflow="visible" id="C"><path d="M.953-6.922V0h2.625c1.703 0 3.047-1.516 3.047-3.406 0-1.922-1.344-3.516-3.063-3.516zm.86 6.36V-6.36h1.53c1.391 0 2.423 1.203 2.423 2.953 0 1.703-1.032 2.844-2.422 2.844zm0 0"/></symbol><symbol overflow="visible" id="D"><path d="M1.563-6.922h-.75V0h.78v-.453c.235.219.673.562 1.345.562.984 0 1.843-1 1.843-2.328 0-1.234-.672-2.312-1.61-2.312-.39 0-1.015.093-1.608.578zm.03 3.578c.157-.234.516-.578 1.063-.578C3.25-3.922 4-3.5 4-2.219 4-.922 3.172-.5 2.562-.5c-.39 0-.718-.172-.968-.64zm0 0"/></symbol><symbol overflow="visible" id="E"><path d="M3.984-4.031v-.39H.422v.577h2.515L.281-.406V0H4v-.625H2.547c-.125 0-.25.016-.36.016h-.859zm0 0"/></symbol><symbol overflow="visible" id="F"><path d="M4.64-6.64a3.374 3.374 0 0 0-1.827-.5c-1.391 0-2.25.984-2.25 1.968 0 .422.14.844.53 1.266.423.453.86.562 1.454.703.844.219.937.25 1.219.484.203.172.421.5.421.938 0 .656-.546 1.312-1.453 1.312a3.301 3.301 0 0 1-2.14-.812L.438-.47c.875.548 1.671.69 2.295.69 1.329 0 2.235-1 2.235-2.11a2.04 2.04 0 0 0-.516-1.359c-.469-.5-.797-.594-1.719-.813C2.156-4.202 2-4.25 1.688-4.5c-.063-.063-.344-.36-.344-.797 0-.578.547-1.187 1.453-1.187.844 0 1.312.328 1.687.64zm0 0"/></symbol><symbol overflow="visible" id="G"><path d="M2.656 2.5v-.61h-.922v-8.765h.922v-.61h-1.64V2.5zm0 0"/></symbol><symbol overflow="visible" id="H"><path d="M5.313-.328c1.093-.844 1.453-2.063 1.453-3.11 0-2.093-1.438-3.703-3.094-3.703-1.703 0-3.11 1.625-3.11 3.704 0 2.109 1.47 3.656 3.094 3.656.156 0 .531-.016.953-.172l.86 1.203H6.5zM4.234-.516c-.015 0-.28.094-.562.094-1.172 0-2.25-1.156-2.25-3.015C1.422-5.298 2.5-6.5 3.656-6.5c1.203 0 2.25 1.219 2.25 3.063 0 .64-.11 1.734-1.015 2.546l-.782-1.046h-.89zm0 0"/></symbol><symbol overflow="visible" id="I"><path d="M1.86-7.484H.218v.609h.922v8.766H.219V2.5h1.64zm0 0"/></symbol><symbol overflow="visible" id="J"><path d="M2.188-6.922H.952V0h.781v-6.203h.016c.188.406.61 1.25.656 1.36L4.86 0h1.235v-6.922h-.782v6.219h-.015c-.188-.406-.61-1.266-.656-1.375zm0 0"/></symbol></defs><path d="M20.121 42.781v190.457c0 2.2 1.785 3.985 3.988 3.985h303.844c2.2 0 3.985-1.786 3.985-3.985V42.781a3.984 3.984 0 0 0-3.985-3.984H24.11a3.984 3.984 0 0 0-3.988 3.984zm0 0" fill="none" stroke-width=".399" stroke="#000" stroke-miterlimit="10"/><use xlink:href="#a" x="243.723" y="55.458"/><use xlink:href="#b" x="250.112" y="55.458"/><use xlink:href="#c" x="255.204" y="55.458"/><use xlink:href="#d" x="260.434" y="55.458"/><use xlink:href="#e" x="265.305" y="55.458"/><use xlink:href="#f" x="270.895" y="55.458"/><use xlink:href="#g" x="273.441" y="55.458"/><use xlink:href="#h" x="279.031" y="55.458"/><use xlink:href="#c" x="288.167" y="55.458"/><use xlink:href="#d" x="297.054" y="55.458"/><use xlink:href="#i" x="301.925" y="55.458"/><use xlink:href="#c" x="304.471" y="55.458"/><use xlink:href="#j" x="309.701" y="55.458"/><use xlink:href="#j" x="313.903" y="55.458"/><path d="M138.207 24.621a4.698 4.698 0 0 0-9.395 0 4.698 4.698 0 0 0 9.395 0zm0 0"/><path d="M168.64 59.395H98.38a3.981 3.981 0 0 0-3.984 3.984v7.527c0 2.2 1.78 3.985 3.984 3.985h70.262a3.987 3.987 0 0 0 3.988-3.985V63.38a3.984 3.984 0 0 0-3.988-3.984zm0 0" fill="none" stroke-width=".399" stroke="#000" stroke-miterlimit="10"/><use xlink:href="#k" x="97.714" y="69.631"/><use xlink:href="#l" x="104.356" y="69.631"/><use xlink:href="#m" x="108.175" y="69.631"/><use xlink:href="#n" x="116.363" y="69.631"/><use xlink:href="#o" x="119.408" y="69.631"/><use xlink:href="#p" x="124.12" y="69.631"/><use xlink:href="#q" x="130.842" y="69.631"/><use xlink:href="#r" x="135.989" y="69.631"/><use xlink:href="#s" x="141.137" y="69.631"/><use xlink:href="#l" x="145.564" y="69.631"/><use xlink:href="#t" x="149.383" y="69.631"/><use xlink:href="#u" x="152.981" y="69.631"/><use xlink:href="#o" x="155.361" y="69.631"/><use xlink:href="#v" x="160.342" y="69.631"/><use xlink:href="#l" x="165.49" y="69.631"/><path d="M140.07 109.664l-6.558-6.559-6.559 6.56 6.559 6.558zm-42.511 31.965H30.945a3.986 3.986 0 0 0-3.984 3.984v7.528a3.986 3.986 0 0 0 3.984 3.984H97.56a3.986 3.986 0 0 0 3.984-3.984v-7.528a3.986 3.986 0 0 0-3.984-3.984zm0 0" fill="none" stroke-width=".399" stroke="#000" stroke-miterlimit="10"/><use xlink:href="#k" x="30.284" y="151.865"/><use xlink:href="#v" x="36.926" y="151.865"/><use xlink:href="#l" x="42.074" y="151.865"/><use xlink:href="#w" x="45.892" y="151.865"/><use xlink:href="#s" x="52.421" y="151.865"/><use xlink:href="#p" x="56.848" y="151.865"/><use xlink:href="#q" x="63.58" y="151.865"/><use xlink:href="#r" x="68.728" y="151.865"/><use xlink:href="#s" x="73.875" y="151.865"/><use xlink:href="#l" x="78.303" y="151.865"/><use xlink:href="#t" x="82.121" y="151.865"/><use xlink:href="#u" x="85.719" y="151.865"/><use xlink:href="#o" x="88.099" y="151.865"/><use xlink:href="#v" x="93.08" y="151.865"/><path d="M270.285 102.883h-60.55a3.987 3.987 0 0 0-3.989 3.984v5.59c0 2.2 1.785 3.984 3.988 3.984h60.551c2.2 0 3.985-1.785 3.985-3.984v-5.59a3.987 3.987 0 0 0-3.985-3.984zm0 0" fill="none" stroke-width=".399" stroke="#000" stroke-miterlimit="10"/><use xlink:href="#x" x="209.067" y="113.12"/><use xlink:href="#v" x="211.835" y="113.12"/><use xlink:href="#t" x="216.982" y="113.12"/><use xlink:href="#p" x="220.58" y="113.12"/><use xlink:href="#o" x="223.984" y="113.12"/><use xlink:href="#y" x="229.244" y="113.12"/><use xlink:href="#r" x="234.392" y="113.12"/><use xlink:href="#z" x="239.54" y="113.12"/><use xlink:href="#s" x="243.967" y="113.12"/><use xlink:href="#z" x="251.712" y="113.12"/><use xlink:href="#A" x="256.139" y="113.12"/><use xlink:href="#B" x="258.519" y="113.12"/><use xlink:href="#l" x="263.307" y="113.12"/><use xlink:href="#l" x="267.126" y="113.12"/><path d="M246.566 152.184l-6.558-6.559-6.559 6.559 6.559 6.558zm-42.511 31.964H143.96a3.986 3.986 0 0 0-3.984 3.985v7.527a3.984 3.984 0 0 0 3.984 3.985h60.094a3.984 3.984 0 0 0 3.988-3.985v-7.527c0-2.2-1.785-3.985-3.988-3.985zm0 0" fill="none" stroke-width=".399" stroke="#000" stroke-miterlimit="10"/><use xlink:href="#C" x="143.298" y="194.385"/><use xlink:href="#u" x="150.493" y="194.385"/><use xlink:href="#l" x="152.873" y="194.385"/><use xlink:href="#t" x="156.692" y="194.385"/><use xlink:href="#p" x="160.289" y="194.385"/><use xlink:href="#u" x="163.693" y="194.385"/><use xlink:href="#D" x="166.073" y="194.385"/><use xlink:href="#r" x="171.221" y="194.385"/><use xlink:href="#t" x="176.369" y="194.385"/><use xlink:href="#s" x="179.966" y="194.385"/><use xlink:href="#q" x="187.711" y="194.385"/><use xlink:href="#r" x="192.859" y="194.385"/><use xlink:href="#u" x="198.007" y="194.385"/><use xlink:href="#E" x="200.387" y="194.385"/><path d="M317.828 184.148h-41.867a3.987 3.987 0 0 0-3.988 3.985v5.59a3.984 3.984 0 0 0 3.988 3.984h41.867a3.984 3.984 0 0 0 3.988-3.984v-5.59c0-2.2-1.785-3.985-3.988-3.985zm0 0" fill="none" stroke-width=".399" stroke="#000" stroke-miterlimit="10"/><use xlink:href="#F" x="275.293" y="194.385"/><use xlink:href="#t" x="280.828" y="194.385"/><use xlink:href="#B" x="284.426" y="194.385"/><use xlink:href="#p" x="288.935" y="194.385"/><use xlink:href="#t" x="292.339" y="194.385"/><use xlink:href="#z" x="299.254" y="194.385"/><use xlink:href="#A" x="303.691" y="194.385"/><use xlink:href="#B" x="306.071" y="194.385"/><use xlink:href="#l" x="310.85" y="194.385"/><use xlink:href="#l" x="314.678" y="194.385"/><path d="M133.512 29.516V51.09" fill="none" stroke-width=".797" stroke="#000" stroke-miterlimit="10"/><path d="M133.512 57.55c.191-.792 1.293-4.28 2.492-6.46h-4.988c1.199 2.18 2.3 5.668 2.496 6.46zm0 0" stroke-width=".797" stroke="#000" stroke-miterlimit="10"/><path d="M133.512 75.09v19.625" fill="none" stroke-width=".797" stroke="#000" stroke-miterlimit="10"/><path d="M133.512 101.18c.191-.797 1.293-4.285 2.492-6.465h-4.988c1.199 2.18 2.3 5.668 2.496 6.465zm0 0" stroke-width=".797" stroke="#000" stroke-miterlimit="10"/><path d="M126.668 109.664H64.254v23.66" fill="none" stroke-width=".797" stroke="#000" stroke-miterlimit="10"/><path d="M64.254 139.785c.195-.793 1.297-4.281 2.496-6.46h-4.992c1.199 2.179 2.3 5.667 2.496 6.46zm0 0" stroke-width=".797" stroke="#000" stroke-miterlimit="10"/><g><use xlink:href="#G" x="55.522" y="103.451"/><use xlink:href="#H" x="58.4" y="103.451"/><use xlink:href="#r" x="65.734" y="103.451"/><use xlink:href="#s" x="70.881" y="103.451"/><use xlink:href="#l" x="75.309" y="103.451"/><use xlink:href="#t" x="79.127" y="103.451"/><use xlink:href="#u" x="82.725" y="103.451"/><use xlink:href="#o" x="85.105" y="103.451"/><use xlink:href="#v" x="90.086" y="103.451"/><use xlink:href="#I" x="95.234" y="103.451"/></g><path d="M26.762 149.379H23.93V67.14h62.156" fill="none" stroke-width=".797" stroke="#000" stroke-miterlimit="10"/><path d="M92.55 67.14c-.792-.19-4.28-1.292-6.464-2.492v4.989c2.184-1.2 5.672-2.301 6.465-2.496zm0 0" stroke-width=".797" stroke="#000" stroke-miterlimit="10"/><path d="M140.352 109.664h57.09" fill="none" stroke-width=".797" stroke="#000" stroke-miterlimit="10"/><path d="M203.906 109.664c-.793-.195-4.285-1.297-6.465-2.496v4.988c2.18-1.199 5.672-2.3 6.465-2.492zm0 0" stroke-width=".797" stroke="#000" stroke-miterlimit="10"/><g><use xlink:href="#G" x="138.548" y="103.451"/><use xlink:href="#J" x="141.426" y="103.451"/><use xlink:href="#o" x="148.483" y="103.451"/></g><g><use xlink:href="#q" x="156.782" y="103.451"/><use xlink:href="#r" x="161.929" y="103.451"/><use xlink:href="#s" x="167.077" y="103.451"/><use xlink:href="#l" x="171.504" y="103.451"/><use xlink:href="#t" x="175.323" y="103.451"/><use xlink:href="#u" x="178.92" y="103.451"/><use xlink:href="#o" x="181.301" y="103.451"/><use xlink:href="#v" x="186.282" y="103.451"/><use xlink:href="#I" x="191.429" y="103.451"/></g><path d="M240.008 116.64v20.594" fill="none" stroke-width=".797" stroke="#000" stroke-miterlimit="10"/><path d="M240.008 143.7c.195-.794 1.297-4.282 2.496-6.466h-4.992c1.199 2.184 2.3 5.672 2.496 6.465zm0 0" stroke-width=".797" stroke="#000" stroke-miterlimit="10"/><path d="M233.168 152.184h-59.16v23.66" fill="none" stroke-width=".797" stroke="#000" stroke-miterlimit="10"/><path d="M174.008 182.305c.195-.793 1.297-4.282 2.496-6.461h-4.988c1.199 2.18 2.3 5.668 2.492 6.46zm0 0" stroke-width=".797" stroke="#000" stroke-miterlimit="10"/><g><use xlink:href="#G" x="170.84" y="145.971"/><use xlink:href="#H" x="173.718" y="145.971"/><use xlink:href="#r" x="181.052" y="145.971"/><use xlink:href="#u" x="186.199" y="145.971"/><use xlink:href="#E" x="188.579" y="145.971"/><use xlink:href="#I" x="192.91" y="145.971"/></g><path d="M246.848 152.184h50.047v23.66" fill="none" stroke-width=".797" stroke="#000" stroke-miterlimit="10"/><path d="M296.895 182.305c.195-.793 1.296-4.282 2.496-6.461h-4.993c1.2 2.18 2.301 5.668 2.497 6.46zm0 0" stroke-width=".797" stroke="#000" stroke-miterlimit="10"/><g><use xlink:href="#G" x="262.683" y="145.971"/><use xlink:href="#J" x="265.561" y="145.971"/><use xlink:href="#o" x="272.618" y="145.971"/></g><g><use xlink:href="#q" x="280.917" y="145.971"/><use xlink:href="#r" x="286.064" y="145.971"/><use xlink:href="#u" x="291.212" y="145.971"/><use xlink:href="#E" x="293.592" y="145.971"/><use xlink:href="#I" x="297.923" y="145.971"/></g><path d="M174.008 199.844v20.398" fill="none" stroke-width=".797" stroke="#000" stroke-miterlimit="10"/><path d="M174.008 220.242v9.356" fill="none" stroke-width=".797" stroke="#000" stroke-dasharray=".79701,1.99255" stroke-miterlimit="10"/><path d="M296.895 197.906v21.367" fill="none" stroke-width=".797" stroke="#000" stroke-miterlimit="10"/><path d="M296.895 219.273v9.356" fill="none" stroke-width=".797" stroke="#000" stroke-dasharray=".79701,1.99255" stroke-miterlimit="10"/></svg>