<svg xmlns="http://www.w3.org/2000/svg" xmlns:xlink="http://www.w3.org/1999/xlink" width="483.4pt" height="378.013" viewBox="0 0 483.4 283.51"><defs><symbol overflow="visible" id="a"><path d="M4.563-.375c0-.36-.297-.375-.47-.375h-.937v-3.125c0-.36-.078-.469-.469-.469H1.313c-.188 0-.485.016-.485.36 0 .375.297.39.485.39h1.015V-.75h-1.11c-.187 0-.468.016-.468.375 0 .36.297.375.469.375h2.875c.172 0 .468-.016.468-.375zm-1.375-5.11a.56.56 0 0 0-.563-.562.564.564 0 0 0-.578.563c0 .328.25.562.578.562a.55.55 0 0 0 .563-.562zm0 0"/></symbol><symbol overflow="visible" id="b"><path d="M5.11-.375c0-.36-.282-.375-.47-.375h-.343v-2.172c0-1.031-.531-1.469-1.344-1.469-.562 0-.953.22-1.203.407 0-.25-.078-.36-.469-.36H.578c-.187 0-.469.016-.469.375 0 .36.297.375.454.375h.359V-.75H.578C.391-.75.11-.734.11-.375c0 .36.297.375.454.375H2.11c.172 0 .47-.016.47-.375 0-.36-.282-.375-.47-.375h-.36v-1.64c0-.907.688-1.266 1.14-1.266.47 0 .579.25.579.781V-.75h-.297c-.188 0-.485.016-.485.375 0 .36.313.375.485.375h1.484c.157 0 .453-.016.453-.375zm0 0"/></symbol><symbol overflow="visible" id="c"><path d="M4.5-1.313c0-.203 0-.437-.422-.437-.39 0-.406.234-.406.438 0 .53-.5.625-.719.625-.656 0-.656-.454-.656-.672v-2.235h1.515c.172 0 .47-.015.47-.375 0-.375-.282-.375-.47-.375H2.298v-.718c0-.22-.016-.47-.406-.47-.422 0-.422.235-.422.47v.718H.703c-.187 0-.469.016-.469.375 0 .36.282.375.454.375h.78v2.281c0 1 .688 1.375 1.454 1.375.75 0 1.578-.453 1.578-1.375zm0 0"/></symbol><symbol overflow="visible" id="d"><path d="M4.39-5.5c0-.625-.843-.656-1.015-.656-.828 0-1.594.484-1.594 1.375v.437H.875c-.188 0-.469.016-.469.375 0 .36.281.375.469.375h.906V-.75H.875c-.188 0-.484.016-.484.375 0 .36.296.375.484.375H3.5c.172 0 .484-.016.484-.375 0-.36-.312-.375-.484-.375h-.906v-2.844h1.11c.171 0 .468-.015.468-.375 0-.375-.281-.375-.469-.375h-1.11v-.375c0-.64.516-.687.813-.687.031.14.156.422.485.422.218 0 .5-.172.5-.516zm0 0"/></symbol><symbol overflow="visible" id="e"><path d="M4.688-.375c0-.36-.282-.375-.47-.375H3.032v-4.86c0-.359-.078-.484-.469-.484h-1.53c-.188 0-.485.016-.485.375 0 .36.297.375.469.375h1.187V-.75H1.031c-.187 0-.484.016-.484.375 0 .36.297.375.469.375h3.203c.172 0 .468-.016.468-.375zm0 0"/></symbol><symbol overflow="visible" id="f"><path d="M4.688-2.172c0-1.265-.954-2.25-2.079-2.25-1.125 0-2.078.984-2.078 2.25C.531-.89 1.5.063 2.61.063c1.11 0 2.079-.97 2.079-2.235zm-.829-.078c0 .86-.562 1.563-1.25 1.563-.671 0-1.25-.704-1.25-1.563 0-.828.61-1.422 1.25-1.422.657 0 1.25.594 1.25 1.422zm0 0"/></symbol><symbol overflow="visible" id="g"><path d="M5.188-.375c0-.36-.282-.375-.47-.375-.28 0-.421-.031-.5-.063v-2.03c0-.72-.546-1.579-2-1.579-.437 0-1.484.031-1.484.781 0 .344.25.516.516.516.172 0 .5-.094.5-.531 0 0 .328-.016.484-.016.657 0 1.125.25 1.157.828-1.72.047-2.907.578-2.907 1.516 0 .703.625 1.39 1.672 1.39.36 0 .938-.078 1.406-.359.25.281.688.297 1.063.297.328 0 .563-.016.563-.375zm-1.813-1c0 .188 0 .375-.328.531-.328.156-.75.156-.828.156-.547 0-.922-.296-.922-.64 0-.438.781-.734 2.078-.781zm0 0"/></symbol><symbol overflow="visible" id="h"><path d="M5.125-.375c0-.36-.297-.375-.469-.375h-.36v-4.86c0-.359-.062-.484-.468-.484h-.703c-.188 0-.484.016-.484.375 0 .36.296.375.468.375h.36v1.297a1.729 1.729 0 0 0-1.063-.344c-1.094 0-2.062.938-2.062 2.235C.344-.922 1.25.063 2.328.063c.485 0 .86-.204 1.14-.454.016.282.079.391.47.391h.703c.187 0 .484-.016.484-.375zM3.453-1.969c0 .516-.406 1.282-1.094 1.282-.671 0-1.203-.657-1.203-1.47 0-.89.64-1.5 1.282-1.5.578 0 1.015.5 1.015 1zm0 0"/></symbol><symbol overflow="visible" id="i"><path d="M5.11-.375c0-.36-.298-.375-.454-.375h-.36v-3.125c0-.36-.077-.469-.468-.469h-.703c-.188 0-.484.016-.484.375 0 .36.296.375.468.375h.36v1.985c0 .812-.735.921-1.031.921-.672 0-.688-.28-.688-.562v-2.625c0-.36-.063-.469-.469-.469H.578c-.187 0-.469.016-.469.375 0 .36.297.375.454.375h.359v2.406c0 .985.719 1.25 1.469 1.25.375 0 .75-.093 1.093-.312.063.234.266.25.454.25h.703c.187 0 .468-.016.468-.375zm0 0"/></symbol><symbol overflow="visible" id="j"><path d="M4.89-2.172c0-1.25-.906-2.219-1.984-2.219-.422 0-.828.141-1.156.375v-1.593c0-.36-.063-.485-.469-.485H.578c-.187 0-.484.016-.484.375 0 .36.312.375.469.375h.359v4.86c0 .25.015.484.422.484.312 0 .39-.14.406-.344a1.57 1.57 0 0 0 1.047.406C3.89.063 4.89-.89 4.89-2.171zm-.827 0c0 .875-.641 1.485-1.282 1.485-.703 0-1.015-.813-1.015-1.25v-.704c0-.546.53-1.015 1.093-1.015.672 0 1.204.687 1.204 1.484zm0 0"/></symbol><symbol overflow="visible" id="k"><path d="M4.656-1.14c0-.329-.343-.344-.422-.344-.218 0-.312.03-.39.265-.203.453-.688.532-.938.532-.672 0-1.344-.422-1.515-1.172h2.796c.25 0 .47 0 .47-.438 0-1.14-.657-2.125-1.97-2.125-1.187 0-2.171 1-2.171 2.234C.516-.952 1.53.063 2.828.063c1.36 0 1.828-.937 1.828-1.203zm-.86-1.454H1.392c.171-.625.687-1.078 1.296-1.078.47 0 1 .219 1.11 1.078zm0 0"/></symbol><symbol overflow="visible" id="l"><path d="M4.672-1.14c0-.329-.344-.344-.422-.344-.188 0-.297.015-.39.265-.047.11-.25.532-.891.532-.781 0-1.438-.641-1.438-1.485 0-.453.25-1.5 1.5-1.5h.5c.016.406.235.547.5.547.282 0 .532-.188.532-.516 0-.75-1.063-.78-1.532-.78-1.719 0-2.328 1.359-2.328 2.25C.703-.97 1.641.061 2.906.061c1.438 0 1.766-1.03 1.766-1.203zm0 0"/></symbol><symbol overflow="visible" id="m"><path d="M5.203-.375c0-.328-.187-.375-.547-.375v-2.266c0-.218-.015-1.375-.953-1.375-.281 0-.656.11-.937.438a.829.829 0 0 0-.75-.438c-.297 0-.563.094-.797.282-.063-.235-.25-.235-.438-.235H.484c-.187 0-.484.016-.484.36 0 .328.188.39.547.39V-.75C.187-.75 0-.703 0-.375 0-.015.313 0 .484 0h.844c.172 0 .453-.016.453-.375 0-.328-.172-.375-.531-.375v-1.656c0-.797.344-1.25.719-1.25.187 0 .281.172.281.719V-.75c-.203.016-.39.063-.39.375 0 .36.28.375.437.375h.734c.172 0 .453-.016.453-.375 0-.328-.171-.375-.53-.375v-1.656c0-.797.343-1.25.718-1.25.203 0 .281.172.281.719V-.75c-.203.016-.39.063-.39.375 0 .36.28.375.437.375h.719c.187 0 .484-.016.484-.375zm0 0"/></symbol><symbol overflow="visible" id="n"><path d="M1.828 0v-6.922h-.89V0zm0 0"/></symbol><symbol overflow="visible" id="o"><path d="M7.11 0v-2.969c0-.672-.157-1.562-1.376-1.562-.593 0-1.109.281-1.484.812-.25-.75-.953-.812-1.266-.812-.718 0-1.187.406-1.453.765v-.718H.813V0h.765v-2.438c0-.687.281-1.484 1.016-1.484.922 0 .969.64.969 1.016V0h.78v-2.438c0-.687.266-1.484 1.016-1.484.922 0 .97.64.97 1.016V0zm0 0"/></symbol><symbol overflow="visible" id="p"><path d="M4.781-2.219c0-1.203-.625-2.312-1.578-2.312-.594 0-1.172.203-1.64.593v-.484h-.75v6.36h.78V-.454c.313.281.75.562 1.345.562.968 0 1.843-.984 1.843-2.328zm-.781 0C4-1.203 3.297-.5 2.547-.5c-.39 0-.656-.203-.86-.469-.093-.14-.093-.172-.093-.344v-2a1.259 1.259 0 0 1 1.062-.578c.75 0 1.344.75 1.344 1.672zm0 0"/></symbol><symbol overflow="visible" id="q"><path d="M1.563 0v-6.922h-.75V0zm0 0"/></symbol><symbol overflow="visible" id="r"><path d="M1.563 0v-4.422h-.75V0zm.078-5.64v-.891H.75v.89zm0 0"/></symbol><symbol overflow="visible" id="s"><path d="M4.14-.406l-.062-.656a2.517 2.517 0 0 1-1.562.53c-.829 0-1.375-.718-1.375-1.687 0-.781.359-1.734 1.421-1.734.516 0 .86.078 1.407.437l.125-.656c-.594-.328-.938-.422-1.547-.422C1.172-4.594.359-3.39.359-2.219.36-.984 1.266.11 2.516.11c.53 0 1.078-.14 1.625-.515zm0 0"/></symbol><symbol overflow="visible" id="t"><path d="M3.313-.266l-.157-.593a1.407 1.407 0 0 1-.906.328c-.36 0-.5-.297-.5-.828v-2.485h1.406v-.578H1.75v-1.266h-.688v1.266H.188v.578h.844v2.656c0 .594.14 1.297.828 1.297s1.204-.25 1.454-.375zm0 0"/></symbol><symbol overflow="visible" id="u"><path d="M4.672-2.188c0-1.343-1-2.406-2.172-2.406C1.266-4.594.297-3.5.297-2.187.297-.875 1.313.108 2.484.108c1.188 0 2.188-1 2.188-2.296zm-.781-.109c0 1.188-.672 1.766-1.407 1.766-.687 0-1.406-.563-1.406-1.766s.75-1.687 1.406-1.687c.704 0 1.407.515 1.407 1.687zm0 0"/></symbol><symbol overflow="visible" id="v"><path d="M4.344 0v-2.969c0-.656-.157-1.562-1.375-1.562-.89 0-1.39.672-1.438.75v-.703H.813V0h.765v-2.438c0-.656.25-1.484 1.016-1.484.953 0 .969.703.969 1.016V0zm0 0"/></symbol><symbol overflow="visible" id="w"><path d="M4.453-4.422h-.75l-.797 2.063C2.703-1.797 2.391-1 2.312-.531h-.015c-.047-.36-.313-1.047-.406-1.313L.92-4.422H.14L1.859 0h.875zm0 0"/></symbol><symbol overflow="visible" id="x"><path d="M4.125-2.188c0-.328-.016-1.078-.39-1.687a1.629 1.629 0 0 0-1.376-.719C1.25-4.594.344-3.53.344-2.25.344-.937 1.313.11 2.5.11a2.81 2.81 0 0 0 1.594-.516l-.063-.656A2.35 2.35 0 0 1 2.516-.5c-.797 0-1.438-.703-1.47-1.688zm-.563-.546H1.095c.156-.75.687-1.25 1.265-1.25.516 0 1.063.328 1.204 1.25zm0 0"/></symbol><symbol overflow="visible" id="y"><path d="M3.266-3.875v-.656c-.891 0-1.438.5-1.75.953v-.906H.812V0h.75v-2.14c0-.985.72-1.704 1.704-1.735zm0 0"/></symbol><symbol overflow="visible" id="z"><path d="M3.594-1.281c0-.547-.375-.875-.39-.907-.392-.359-.657-.421-1.157-.5C1.5-2.796 1.03-2.905 1.03-3.39 1.031-4 1.75-4 1.891-4c.312 0 .843.031 1.406.375l.125-.656a3.19 3.19 0 0 0-1.438-.313c-.25 0-1.656 0-1.656 1.297 0 .5.297.813.547 1 .297.219.516.266 1.063.375.359.063.937.188.937.719 0 .687-.781.687-.938.687C1.141-.516.579-.89.407-1L.28-.328c.313.156.86.437 1.672.437.188 0 .734 0 1.156-.312.313-.25.485-.64.485-1.078zm0 0"/></symbol><symbol overflow="visible" id="A"><path d="M5.516 0v-.703H1.828v-2.578H5.11v-.61H1.83V-6.25h1.374c.11 0 .235.016.36.016H5.39v-.657H.937V0zm0 0"/></symbol><symbol overflow="visible" id="B"><path d="M4.578 0L2.594-2.281l1.828-2.14h-.828l-1.328 1.64L.89-4.421H.062l1.875 2.14L0 0h.813l1.453-1.875L3.766 0zm0 0"/></symbol><symbol overflow="visible" id="C"><path d="M3.313 2.5c-.485-.484-1.75-1.766-1.75-5 0-.547.03-1.719.437-2.89.406-1.157.984-1.75 1.313-2.094h-.61c-.328.312-.984.921-1.453 2.14C.86-4.28.781-3.219.781-2.5c0 3.234 1.438 4.547 1.922 5zm0 0"/></symbol><symbol overflow="visible" id="D"><path d="M4.344 0v-4.422h-.782v2.89C3.563-.781 3-.436 2.36-.436c-.703 0-.78-.266-.78-.688v-3.297H.812v3.328C.813-.375 1.03.11 1.859.11c.532 0 1.235-.156 1.735-.593V0zm0 0"/></symbol><symbol overflow="visible" id="E"><path d="M4.328 0v-6.922h-.75v2.938a2.289 2.289 0 0 0-1.453-.547C1.141-4.531.359-3.5.359-2.22.36-.906 1.125.11 2.08.11c.327 0 .905-.093 1.468-.625V0zm-.781-1.39c0 .14-.016.327-.328.609a1.09 1.09 0 0 1-.735.281c-.625 0-1.343-.469-1.343-1.703 0-1.313.859-1.719 1.437-1.719.453 0 .75.219.969.547zm0 0"/></symbol><symbol overflow="visible" id="F"><path d="M4.828-3.906l-.11-.625a4.17 4.17 0 0 0-1.562.312 1.542 1.542 0 0 0-.953-.312c-.86 0-1.578.718-1.578 1.625 0 .36.125.719.328.984-.297.406-.297.797-.297.844 0 .266.094.547.266.766C.406-.017.282.453.282.702c0 .75.984 1.344 2.202 1.344 1.22 0 2.204-.578 2.204-1.344 0-1.39-1.657-1.39-2.047-1.39h-.875c-.125 0-.579 0-.579-.532 0-.11.032-.265.11-.36.203.157.531.298.906.298.89 0 1.594-.75 1.594-1.625 0-.485-.219-.86-.328-1l.047.015c.218 0 .484-.046.734-.046.172 0 .578.03.578.03zm-1.734 1c0 .765-.469 1.047-.89 1.047-.376 0-.892-.22-.892-1.047 0-.828.516-1.063.891-1.063.422 0 .89.281.89 1.063zM4 .719c0 .437-.688.765-1.5.765-.813 0-1.516-.312-1.516-.78 0-.032 0-.673.766-.673h.906C2.875.031 4 .031 4 .72zm0 0"/></symbol><symbol overflow="visible" id="G"><path d="M3.078-2.5c0-3.219-1.437-4.531-1.906-4.984h-.61C1.032-7 2.298-5.72 2.298-2.5c0 .563-.031 1.734-.438 2.906A5.391 5.391 0 0 1 .563 2.5h.609c.312-.313.984-.922 1.437-2.14.407-1.063.47-2.126.47-2.86zm0 0"/></symbol><symbol overflow="visible" id="H"><path d="M4.078 0v-2.875c0-1.016-.734-1.719-1.64-1.719a2.87 2.87 0 0 0-1.563.422l.047.656C1.453-3.875 1.937-4 2.437-4c.47 0 .86.39.86 1.125v.438C1.797-2.422.53-2 .53-1.125.53-.703.811.109 1.67.109c.141 0 1.079-.015 1.657-.468V0zm-.781-1.313c0 .188 0 .438-.344.625-.281.172-.656.188-.765.188-.485 0-.938-.234-.938-.64 0-.704 1.625-.766 2.047-.798zm0 0"/></symbol></defs><g fill="#b00040"><use xlink:href="#a" x="74.075" y="144.886"/><use xlink:href="#b" x="79.305" y="144.886"/><use xlink:href="#c" x="84.536" y="144.886"/></g><g fill="#b00040"><use xlink:href="#d" x="181.847" y="144.941"/><use xlink:href="#e" x="187.077" y="144.941"/><use xlink:href="#f" x="192.308" y="144.941"/><use xlink:href="#g" x="197.538" y="144.941"/><use xlink:href="#c" x="202.768" y="144.941"/></g><g fill="#b00040"><use xlink:href="#h" x="300.079" y="144.911"/><use xlink:href="#f" x="305.309" y="144.911"/><use xlink:href="#i" x="310.54" y="144.911"/><use xlink:href="#j" x="315.77" y="144.911"/><use xlink:href="#e" x="321" y="144.911"/><use xlink:href="#k" x="326.231" y="144.911"/></g><g fill="#b00040"><use xlink:href="#h" x="423.542" y="144.911"/><use xlink:href="#k" x="428.772" y="144.911"/><use xlink:href="#l" x="434.003" y="144.911"/><use xlink:href="#a" x="439.233" y="144.911"/><use xlink:href="#m" x="444.463" y="144.911"/><use xlink:href="#g" x="449.694" y="144.911"/><use xlink:href="#e" x="454.924" y="144.911"/></g><path d="M86.2 135.328c22.21-34.121 82.16-34.152 103.89-.855" fill="none" stroke-width="1.196" stroke="#37392e" stroke-miterlimit="10"/><path d="M191.18 131.477c-.715.656-.957 2.91-.832 3.398-.395-.316-2.551-1-3.442-.61" fill="none" stroke-width=".956" stroke-linecap="round" stroke-linejoin="round" stroke="#37392e" stroke-miterlimit="10"/><path d="M199.234 135.273c23.91-36.664 88.356-36.644 111.723-.77" fill="none" stroke-width="1.196" stroke="#37392e" stroke-miterlimit="10"/><path d="M312.05 131.508c-.714.656-.96 2.906-.831 3.394-.395-.312-2.555-1-3.442-.609" fill="none" stroke-width=".956" stroke-linecap="round" stroke-linejoin="round" stroke="#37392e" stroke-miterlimit="10"/><path d="M86.2 135.328c47.96-73.601 177.304-73.617 224.753-.824" fill="none" stroke-width="1.196" stroke="#37392e" stroke-miterlimit="10"/><path d="M312.047 131.508c-.715.656-.957 2.906-.832 3.394-.395-.312-2.555-1-3.442-.609" fill="none" stroke-width=".956" stroke-linecap="round" stroke-linejoin="round" stroke="#37392e" stroke-miterlimit="10"/><path d="M86.191 135.328c74.805-114.797 276.547-114.808 350.848-.824" fill="none" stroke-width="1.196" stroke="#37392e" stroke-miterlimit="10"/><path d="M438.133 131.508c-.715.656-.961 2.906-.832 3.394-.395-.312-2.555-1-3.442-.609" fill="none" stroke-width=".956" stroke-linecap="round" stroke-linejoin="round" stroke="#37392e" stroke-miterlimit="10"/><path d="M327.184 135.305c34.87-20.133 68.382-20.133 102.425-.48" fill="none" stroke-width="1.196" stroke="#19648e" stroke-dasharray="1.19553,1.99255" stroke-miterlimit="10"/><path d="M429.227 131.66c-.34.906.46 3.027.796 3.406-.496-.101-2.73.262-3.347 1.012" fill="none" stroke-width=".956" stroke-linecap="round" stroke-linejoin="round" stroke="#19648e" stroke-miterlimit="10"/><path d="M206.375 135.273c75.68-43.68 148.406-43.671 223.242-.449" fill="none" stroke-width="1.196" stroke="#19648e" stroke-dasharray="1.19553,1.99255" stroke-miterlimit="10"/><path d="M429.238 131.66c-.34.906.461 3.027.793 3.406-.492-.101-2.726.262-3.344 1.012" fill="none" stroke-width=".956" stroke-linecap="round" stroke-linejoin="round" stroke="#19648e" stroke-miterlimit="10"/><path d="M430.438 148.492c-34.872 20.133-68.383 20.133-102.426.477" fill="none" stroke-width="1.196" stroke="#19647e" stroke-dasharray="2.98883,2.98883" stroke-miterlimit="10"/><path d="M328.39 152.133c.34-.906-.46-3.028-.792-3.403.492.102 2.726-.265 3.343-1.015" fill="none" stroke-width=".956" stroke-linecap="round" stroke-linejoin="round" stroke="#19647e" stroke-miterlimit="10"/><path d="M304.355 148.492c-33.078 19.11-64.875 19.121-97.136.508" fill="none" stroke-width="1.196" stroke="#19647e" stroke-dasharray="2.98883,2.98883" stroke-miterlimit="10"/><path d="M207.598 152.164c.34-.91-.461-3.027-.793-3.406.492.101 2.726-.266 3.343-1.012" fill="none" stroke-width=".956" stroke-linecap="round" stroke-linejoin="round" stroke="#19647e" stroke-miterlimit="10"/><path d="M430.445 148.492c-75.664 43.7-148.39 43.707-223.242.508" fill="none" stroke-width="1.196" stroke="#19647e" stroke-dasharray="2.98883,2.98883" stroke-miterlimit="10"/><path d="M207.586 152.164c.34-.91-.461-3.027-.797-3.406.496.101 2.73-.262 3.348-1.012" fill="none" stroke-width=".956" stroke-linecap="round" stroke-linejoin="round" stroke="#19647e" stroke-miterlimit="10"/><path d="M430.453 148.492c-113.875 65.723-223.308 65.711-336.34.43" fill="none" stroke-width="1.196" stroke="#28afb0" stroke-miterlimit="10"/><path d="M94.496 152.086c.34-.906-.46-3.027-.797-3.402.496.101 2.73-.266 3.348-1.012" fill="none" stroke-width=".956" stroke-linecap="round" stroke-linejoin="round" stroke="#28afb0" stroke-miterlimit="10"/><path d="M304.36 148.492c-71.29 41.14-139.798 41.125-210.247.438" fill="none" stroke-width="1.196" stroke="#28afb0" stroke-miterlimit="10"/><path d="M94.496 152.094c.34-.907-.46-3.028-.797-3.403.496.098 2.73-.265 3.348-1.015" fill="none" stroke-width=".956" stroke-linecap="round" stroke-linejoin="round" stroke="#28afb0" stroke-miterlimit="10"/><path d="M183.457 148.52c-30.465 17.562-59.73 17.539-89.344.417" fill="none" stroke-width="1.196" stroke="#28afb0" stroke-miterlimit="10"/><path d="M94.492 152.102c.344-.91-.457-3.028-.793-3.407.496.102 2.73-.261 3.348-1.011" fill="none" stroke-width=".956" stroke-linecap="round" stroke-linejoin="round" stroke="#28afb0" stroke-miterlimit="10"/><use xlink:href="#n" x="43.111" y="229.428"/><use xlink:href="#o" x="45.881" y="229.428"/><use xlink:href="#p" x="53.791" y="229.428"/><use xlink:href="#q" x="58.942" y="229.428"/><use xlink:href="#r" x="61.323" y="229.428"/><use xlink:href="#s" x="63.704" y="229.428"/><use xlink:href="#r" x="68.127" y="229.428"/><use xlink:href="#t" x="70.508" y="229.428"/><use xlink:href="#s" x="77.422" y="229.428"/><use xlink:href="#u" x="81.846" y="229.428"/><use xlink:href="#v" x="86.827" y="229.428"/><use xlink:href="#w" x="91.978" y="229.428"/><use xlink:href="#x" x="96.57" y="229.428"/><use xlink:href="#y" x="100.994" y="229.428"/><use xlink:href="#z" x="104.401" y="229.428"/><use xlink:href="#r" x="108.217" y="229.428"/><use xlink:href="#u" x="110.598" y="229.428"/><use xlink:href="#v" x="115.579" y="229.428"/><path d="M22.39 226.938h16.247" fill="none" stroke-width="1.196" stroke="#37392e" stroke-miterlimit="10"/><path d="M36.723 224.387c.16.957 1.914 2.39 2.39 2.55-.476.16-2.23 1.594-2.39 2.551" fill="none" stroke-width=".956" stroke-linecap="round" stroke-linejoin="round" stroke="#37392e" stroke-miterlimit="10"/><use xlink:href="#A" x="43.111" y="257.775"/><use xlink:href="#B" x="49.059" y="257.775"/><use xlink:href="#p" x="53.651" y="257.775"/><use xlink:href="#q" x="58.802" y="257.775"/><use xlink:href="#r" x="61.183" y="257.775"/><use xlink:href="#s" x="63.564" y="257.775"/><use xlink:href="#r" x="67.988" y="257.775"/><use xlink:href="#t" x="70.369" y="257.775"/><use xlink:href="#s" x="77.283" y="257.775"/><use xlink:href="#u" x="81.706" y="257.775"/><use xlink:href="#v" x="86.687" y="257.775"/><use xlink:href="#w" x="91.838" y="257.775"/><use xlink:href="#x" x="96.431" y="257.775"/><use xlink:href="#y" x="100.854" y="257.775"/><use xlink:href="#z" x="104.261" y="257.775"/><use xlink:href="#r" x="108.077" y="257.775"/><use xlink:href="#u" x="110.458" y="257.775"/><use xlink:href="#v" x="115.439" y="257.775"/><g><use xlink:href="#C" x="123.908" y="257.775"/><use xlink:href="#y" x="127.783" y="257.775"/><use xlink:href="#u" x="131.19" y="257.775"/><use xlink:href="#D" x="136.172" y="257.775"/><use xlink:href="#v" x="141.322" y="257.775"/><use xlink:href="#E" x="146.473" y="257.775"/><use xlink:href="#r" x="151.624" y="257.775"/><use xlink:href="#v" x="154.005" y="257.775"/><use xlink:href="#F" x="159.155" y="257.775"/><use xlink:href="#G" x="164.137" y="257.775"/></g><path d="M21.48 255.285h18.11" fill="none" stroke-width="1.196" stroke="#19647e" stroke-dasharray="2.98883,2.98883" stroke-miterlimit="10"/><path d="M23.39 257.836c-.16-.957-1.91-2.39-2.39-2.55.48-.161 2.23-1.595 2.39-2.552" fill="none" stroke-width=".956" stroke-linecap="round" stroke-linejoin="round" stroke="#19647e" stroke-miterlimit="10"/><g><use xlink:href="#A" x="269.886" y="257.775"/><use xlink:href="#B" x="275.834" y="257.775"/><use xlink:href="#p" x="280.426" y="257.775"/><use xlink:href="#q" x="285.577" y="257.775"/><use xlink:href="#r" x="287.958" y="257.775"/><use xlink:href="#s" x="290.339" y="257.775"/><use xlink:href="#r" x="294.763" y="257.775"/><use xlink:href="#t" x="297.144" y="257.775"/></g><g><use xlink:href="#s" x="304.058" y="257.775"/><use xlink:href="#u" x="308.481" y="257.775"/><use xlink:href="#v" x="313.462" y="257.775"/><use xlink:href="#w" x="318.613" y="257.775"/><use xlink:href="#x" x="323.206" y="257.775"/><use xlink:href="#y" x="327.629" y="257.775"/><use xlink:href="#z" x="331.036" y="257.775"/><use xlink:href="#r" x="334.852" y="257.775"/><use xlink:href="#u" x="337.233" y="257.775"/><use xlink:href="#v" x="342.214" y="257.775"/></g><g><use xlink:href="#C" x="350.683" y="257.775"/><use xlink:href="#t" x="354.558" y="257.775"/><use xlink:href="#y" x="358.155" y="257.775"/><use xlink:href="#D" x="361.562" y="257.775"/><use xlink:href="#v" x="366.713" y="257.775"/><use xlink:href="#s" x="371.863" y="257.775"/><use xlink:href="#H" x="376.287" y="257.775"/><use xlink:href="#t" x="381.079" y="257.775"/><use xlink:href="#r" x="384.675" y="257.775"/><use xlink:href="#v" x="387.056" y="257.775"/><use xlink:href="#F" x="392.207" y="257.775"/><use xlink:href="#G" x="397.188" y="257.775"/></g><path d="M251.39 255.285h14.977" fill="none" stroke-width="1.196" stroke="#28afb0" stroke-miterlimit="10"/><path d="M253.305 257.836c-.16-.957-1.914-2.39-2.39-2.55.476-.161 2.23-1.595 2.39-2.552" fill="none" stroke-width=".956" stroke-linecap="round" stroke-linejoin="round" stroke="#28afb0" stroke-miterlimit="10"/><g><use xlink:href="#A" x="269.886" y="229.428"/><use xlink:href="#B" x="275.834" y="229.428"/><use xlink:href="#p" x="280.426" y="229.428"/><use xlink:href="#q" x="285.577" y="229.428"/><use xlink:href="#r" x="287.958" y="229.428"/><use xlink:href="#s" x="290.339" y="229.428"/><use xlink:href="#r" x="294.763" y="229.428"/><use xlink:href="#t" x="297.144" y="229.428"/></g><g><use xlink:href="#s" x="304.058" y="229.428"/><use xlink:href="#u" x="308.481" y="229.428"/><use xlink:href="#v" x="313.462" y="229.428"/><use xlink:href="#w" x="318.613" y="229.428"/><use xlink:href="#x" x="323.206" y="229.428"/><use xlink:href="#y" x="327.629" y="229.428"/><use xlink:href="#z" x="331.036" y="229.428"/><use xlink:href="#r" x="334.852" y="229.428"/><use xlink:href="#u" x="337.233" y="229.428"/><use xlink:href="#v" x="342.214" y="229.428"/></g><path d="M249.098 226.938h16.312" fill="none" stroke-width="1.196" stroke="#19648e" stroke-dasharray="1.19553,1.99255" stroke-miterlimit="10"/><path d="M263.496 224.387c.16.957 1.914 2.39 2.39 2.55-.476.16-2.23 1.594-2.39 2.551" fill="none" stroke-width=".956" stroke-linecap="round" stroke-linejoin="round" stroke="#19648e" stroke-miterlimit="10"/></svg>